999
dxflib 3.17.0.0
  0
SECTION
  2
HEADER
  9
$ACADVER
  1
AC1015
  9
$HANDSEED
  5
FFFF
  9
$ANGBASE
 50
0.0
  9
$ANGDIR
 70
0
  9
$ATTMODE
 70
1
  9
$AUNITS
 70
0
  9
$AUPREC
 70
0
  9
$CECOLOR
 62
18
  9
$CELTSCALE
 40
1.0
  9
$CHAMFERA
 40
0.0
  9
$CHAMFERB
 40
0.0
  9
$CHAMFERC
 40
0.0
  9
$CHAMFERD
 40
0.0
  9
$CMLJUST
 70
0
  9
$CMLSCALE
 40
1.0
  9
$DIMADEC
 70
0
  9
$DIMALT
 70
0
  9
$DIMALTD
 70
2
  9
$DIMALTF
 40
25.3999999999999986
  9
$DIMALTTD
 70
2
  9
$DIMALTTZ
 70
0
  9
$DIMALTU
 70
2
  9
$DIMALTZ
 70
0
  9
$DIMAPOST
  1

  9
$DIMASZ
 40
0.18
  9
$DIMAUNIT
 70
0
  9
$DIMAZIN
 70
0
  9
$DIMBLK
  1

  9
$DIMBLK1
  1

  9
$DIMBLK2
  1

  9
$DIMCEN
 40
0.09
  9
$DIMCLRD
 70
18
  9
$DIMCLRE
 70
18
  9
$DIMCLRT
 70
18
  9
$DIMDEC
 70
4
  9
$DIMDLE
 40
0.0
  9
$DIMDLI
 40
0.38
  9
$DIMDSEP
 70
46
  9
$DIMEXE
 40
0.18
  9
$DIMEXO
 40
0.0625
  9
$DIMGAP
 40
0.09
  9
$DIMJUST
 70
0
  9
$DIMLFAC
 40
1.0
  9
$DIMLIM
 70
0
  9
$DIMLUNIT
 70
2
  9
$DIMPOST
  1

  9
$DIMRND
 40
0.0
  9
$DIMSAH
 70
0
  9
$DIMSCALE
 40
1.0
  9
$DIMSD1
 70
0
  9
$DIMSD2
 70
0
  9
$DIMSE1
 70
0
  9
$DIMSE2
 70
0
  9
$DIMSOXD
 70
0
  9
$DIMTAD
 70
0
  9
$DIMTDEC
 70
4
  9
$DIMTFAC
 40
1.0
  9
$DIMTIH
 70
1
  9
$DIMTIX
 70
0
  9
$DIMTM
 40
0.0
  9
$DIMTOFL
 70
0
  9
$DIMTOH
 70
1
  9
$DIMTOL
 70
0
  9
$DIMTOLJ
 70
1
  9
$DIMTP
 40
0.0
  9
$DIMTSZ
 40
0.0
  9
$DIMTVP
 40
0.0
  9
$DIMTXSTY
  7
STANDARD
  9
$DIMTXT
 40
0.18
  9
$DIMTZIN
 70
0
  9
$DIMUPT
 70
0
  9
$DIMZIN
 70
0
  9
$DISPSILH
 70
0
  9
$DWGCODEPAGE
  3
ANSI_1252
  9
$ELEVATION
 40
0.0
  9
$EXTMAX
 10
-100000000000000000000.0
 20
-100000000000000000000.0
 30
-100000000000000000000.0
  9
$EXTMIN
 10
100000000000000000000.0
 20
100000000000000000000.0
 30
100000000000000000000.0
  9
$FILLETRAD
 40
0.5
  9
$FILLMODE
 70
1
  9
$INSBASE
 10
0.0
 20
0.0
 30
0.0
  9
$INSUNITS
 70
0
  9
$LIMCHECK
 70
0
  9
$LIMMAX
 10
12.0
 20
9.0
  9
$LIMMIN
 10
0.0
 20
0.0
  9
$LTSCALE
 40
1.0
  9
$LUNITS
 70
2
  9
$LUPREC
 70
4
  9
$MAXACTVP
 70
64
  9
$MEASUREMENT
 70
0
  9
$MIRRTEXT
 70
1
  9
$ORTHOMODE
 70
0
  9
$PDMODE
 70
0
  9
$PDSIZE
 40
0.0
  9
$PELEVATION
 40
0.0
  9
$PEXTMAX
 10
-100000000000000000000.0
 20
-100000000000000000000.0
 30
-100000000000000000000.0
  9
$PEXTMIN
 10
100000000000000000000.0
 20
100000000000000000000.0
 30
100000000000000000000.0
  9
$PINSBASE
 10
0.0
 20
0.0
 30
0.0
  9
$PLIMCHECK
 70
0
  9
$PLIMMAX
 10
10.75
 20
8.25
  9
$PLIMMIN
 10
-0.25
 20
-0.25
  9
$PLINEGEN
 70
0
  9
$PLINEWID
 40
0.0
  9
$PROXYGRAPHICS
 70
1
  9
$PSLTSCALE
 70
1
  9
$PUCSNAME
  2

  9
$PUCSORG
 10
0.0
 20
0.0
 30
0.0
  9
$PUCSXDIR
 10
1.0
 20
0.0
 30
0.0
  9
$PUCSYDIR
 10
0.0
 20
1.0
 30
0.0
  9
$QTEXTMODE
 70
0
  9
$REGENMODE
 70
1
  9
$SHADEDGE
 70
3
  9
$SHADEDIF
 70
70
  9
$SKETCHINC
 40
0.1
  9
$SKPOLY
 70
0
  9
$SPLFRAME
 70
0
  9
$SPLINESEGS
 70
8
  9
$SPLINETYPE
 70
6
  9
$SURFTAB1
 70
6
  9
$SURFTAB2
 70
6
  9
$SURFTYPE
 70
6
  9
$SURFU
 70
6
  9
$SURFV
 70
6
  9
$TEXTSIZE
 40
0.2
  9
$TEXTSTYLE
  7
STANDARD
  9
$THICKNESS
 40
0.0
  9
$TILEMODE
 70
1
  9
$TRACEWID
 40
0.05
  9
$TREEDEPTH
 70
3020
  9
$UCSNAME
  2

  9
$UCSORG
 10
0.0
 20
0.0
 30
0.0
  9
$UCSXDIR
 10
1.0
 20
0.0
 30
0.0
  9
$UCSYDIR
 10
0.0
 20
1.0
 30
0.0
  9
$UNITMODE
 70
0
  9
$USERI1
 70
0
  9
$USERI2
 70
0
  9
$USERI3
 70
0
  9
$USERI4
 70
0
  9
$USERI5
 70
0
  9
$USERR1
 40
0.0
  9
$USERR2
 40
0.0
  9
$USERR3
 40
0.0
  9
$USERR4
 40
0.0
  9
$USERR5
 40
0.0
  9
$USRTIMER
 70
1
  9
$VISRETAIN
 70
1
  0
ENDSEC
  0
SECTION
  2
TABLES
  0
TABLE
  2
VPORT
  5
8
100
AcDbSymbolTable
 70
1
  0
VPORT
  5
30
100
AcDbSymbolTableRecord
100
AcDbViewportTableRecord
  2
*Active
 70
0
 10
0.0
 20
0.0
 11
1.0
 21
1.0
 12
286.3055555555554861
 22
148.5
 13
0.0
 23
0.0
 14
10.0
 24
10.0
 15
10.0
 25
10.0
 16
0.0
 26
0.0
 36
1.0
 17
0.0
 27
0.0
 37
0.0
 40
297.0
 41
1.92798353909465
 42
50.0
 43
0.0
 44
0.0
 50
0.0
 51
0.0
 71
0
 72
100
 73
1
 74
3
 75
1
 76
1
 77
0
 78
0
281
0
 65
1
110
0.0
120
0.0
130
0.0
111
1.0
121
0.0
131
0.0
112
0.0
122
1.0
132
0.0
 79
0
146
0.0
  0
ENDTAB
  0
TABLE
  2
LTYPE
  5
5
100
AcDbSymbolTable
 70
50
  0
LTYPE
  5
16
100
AcDbSymbolTableRecord
100
AcDbLinetypeTableRecord
  2
CONTINUOUS
 70
0
  3
Solid line
 72
65
 73
0
 40
0.0
  0
LTYPE
  5
31
100
AcDbSymbolTableRecord
100
AcDbLinetypeTableRecord
  2
PHANTOM
 70
0
  3
Phantom ______  __  __  ______  __  __  ______ 
 72
65
 73
6
 40
63.5000000000000071
 49
31.75
 74
0
 49
-6.3499999999999996
 74
0
 49
6.3499999999999996
 74
0
 49
-6.3499999999999996
 74
0
 49
6.3499999999999996
 74
0
 49
-6.3499999999999996
 74
0
  0
LTYPE
  5
32
100
AcDbSymbolTableRecord
100
AcDbLinetypeTableRecord
  2
PHANTOM2
 70
0
  3
Phantom (.5x) ___ _ _ ___ _ _ ___ _ _ ___ _ _
 72
65
 73
6
 40
31.7500000000000036
 49
15.875
 74
0
 49
-3.1749999999999998
 74
0
 49
3.1749999999999998
 74
0
 49
-3.1749999999999998
 74
0
 49
3.1749999999999998
 74
0
 49
-3.1749999999999998
 74
0
  0
LTYPE
  5
33
100
AcDbSymbolTableRecord
100
AcDbLinetypeTableRecord
  2
ACAD_ISO12W100
 70
0
  3
ISO dash double-dot __ . . __ . . __ . . __ . . 
 72
65
 73
6
 40
21.0
 49
12.0
 74
0
 49
-2.9500000000000002
 74
0
 49
0.1
 74
0
 49
-2.9000000000000004
 74
0
 49
0.1
 74
0
 49
-2.9500000000000002
 74
0
  0
LTYPE
  5
34
100
AcDbSymbolTableRecord
100
AcDbLinetypeTableRecord
  2
ACAD_ISO03W100
 70
0
  3
ISO dash space __    __    __    __    __    __
 72
65
 73
2
 40
30.0
 49
12.0
 74
0
 49
-18.0
 74
0
  0
LTYPE
  5
35
100
AcDbSymbolTableRecord
100
AcDbLinetypeTableRecord
  2
HIDDEN
 70
0
  3
Hidden __ __ __ __ __ __ __ __ __ __ __ __ __ __
 72
65
 73
2
 40
9.5249999999999986
 49
6.3499999999999996
 74
0
 49
-3.1749999999999998
 74
0
  0
LTYPE
  5
36
100
AcDbSymbolTableRecord
100
AcDbLinetypeTableRecord
  2
CENTER
 70
0
  3
Center ____ _ ____ _ ____ _ ____ _ ____ _ ____
 72
65
 73
4
 40
50.8000000000000043
 49
31.75
 74
0
 49
-6.3499999999999996
 74
0
 49
6.3499999999999996
 74
0
 49
-6.3499999999999996
 74
0
  0
LTYPE
  5
37
100
AcDbSymbolTableRecord
100
AcDbLinetypeTableRecord
  2
HIDDEN2
 70
0
  3
Hidden (.5x) _ _ _ _ _ _ _ _ _ _ _ _ _ _ _ _ _ 
 72
65
 73
2
 40
4.7624999999999993
 49
3.1749999999999998
 74
0
 49
-1.5874999999999999
 74
0
  0
LTYPE
  5
38
100
AcDbSymbolTableRecord
100
AcDbLinetypeTableRecord
  2
DIVIDE2
 70
0
  3
Divide (.5x) __..__..__..__..__..__..__..__.._
 72
65
 73
6
 40
15.8749999999999982
 49
6.3499999999999996
 74
0
 49
-3.125
 74
0
 49
0.1
 74
0
 49
-3.0750000000000002
 74
0
 49
0.1
 74
0
 49
-3.125
 74
0
  0
LTYPE
  5
39
100
AcDbSymbolTableRecord
100
AcDbLinetypeTableRecord
  2
ACAD_ISO13W100
 70
0
  3
ISO double-dash double-dot __ __ . . __ __ . . _
 72
65
 73
8
 40
36.0000000000000071
 49
12.0
 74
0
 49
-3.0
 74
0
 49
12.0
 74
0
 49
-2.9500000000000002
 74
0
 49
0.1
 74
0
 49
-2.9000000000000004
 74
0
 49
0.1
 74
0
 49
-2.9500000000000002
 74
0
  0
LTYPE
  5
3A
100
AcDbSymbolTableRecord
100
AcDbLinetypeTableRecord
  2
CENTERX2
 70
0
  3
Center (2x) ________  __  ________  __  _____
 72
65
 73
4
 40
101.6000000000000085
 49
63.5
 74
0
 49
-12.6999999999999993
 74
0
 49
12.6999999999999993
 74
0
 49
-12.6999999999999993
 74
0
  0
LTYPE
  5
3B
100
AcDbSymbolTableRecord
100
AcDbLinetypeTableRecord
  2
PHANTOMX2
 70
0
  3
Phantom (2x) ____________    ____    ____   _
 72
65
 73
6
 40
127.0000000000000142
 49
63.5
 74
0
 49
-12.6999999999999993
 74
0
 49
12.6999999999999993
 74
0
 49
-12.6999999999999993
 74
0
 49
12.6999999999999993
 74
0
 49
-12.6999999999999993
 74
0
  0
LTYPE
  5
3C
100
AcDbSymbolTableRecord
100
AcDbLinetypeTableRecord
  2
DRAINAGE
 70
0
  3
Drainage ---->---->---->----
 72
65
 73
1
 40
5.0800000000000001
 49
5.0800000000000001
 74
0
  0
LTYPE
  5
3D
100
AcDbSymbolTableRecord
100
AcDbLinetypeTableRecord
  2
FENCELINE1
 70
0
  3
Fenceline circle ----0-----0----0-----0----0-----0--
 72
65
 73
2
 40
8.8900000000000006
 49
6.3499999999999996
 74
0
 49
-2.54
 74
0
  0
LTYPE
  5
3E
100
AcDbSymbolTableRecord
100
AcDbLinetypeTableRecord
  2
ACAD_ISO11W100
 70
0
  3
ISO double-dash dot __ __ . __ __ . __ __ . __ _
 72
65
 73
6
 40
33.0
 49
12.0
 74
0
 49
-3.0
 74
0
 49
12.0
 74
0
 49
-2.9500000000000002
 74
0
 49
0.1
 74
0
 49
-2.9500000000000002
 74
0
  0
LTYPE
  5
3F
100
AcDbSymbolTableRecord
100
AcDbLinetypeTableRecord
  2
DASHDOTX2
 70
0
  3
Dash dot (2x) ____  .  ____  .  ____  .  ___
 72
65
 73
4
 40
50.7999999999999972
 49
25.3999999999999986
 74
0
 49
-12.6499999999999986
 74
0
 49
0.1
 74
0
 49
-12.6499999999999986
 74
0
  0
LTYPE
  5
40
100
AcDbSymbolTableRecord
100
AcDbLinetypeTableRecord
  2
ACAD_ISO08W100
 70
0
  3
ISO long-dash short-dash ____ __ ____ __ ____ _
 72
65
 73
4
 40
36.0
 49
24.0
 74
0
 49
-3.0
 74
0
 49
6.0
 74
0
 49
-3.0
 74
0
  0
LTYPE
  5
41
100
AcDbSymbolTableRecord
100
AcDbLinetypeTableRecord
  2
BORDER2
 70
0
  3
Border (.5x) __.__.__.__.__.__.__.__.__.__.__.
 72
65
 73
6
 40
22.2250000000000014
 49
6.3499999999999996
 74
0
 49
-3.1749999999999998
 74
0
 49
6.3499999999999996
 74
0
 49
-3.125
 74
0
 49
0.1
 74
0
 49
-3.125
 74
0
  0
LTYPE
  5
42
100
AcDbSymbolTableRecord
100
AcDbLinetypeTableRecord
  2
CENTER2
 70
0
  3
Center (.5x) ___ _ ___ _ ___ _ ___ _ ___ _ ___
 72
65
 73
4
 40
28.5750000000000028
 49
19.0500000000000007
 74
0
 49
-3.1749999999999998
 74
0
 49
3.1749999999999998
 74
0
 49
-3.1749999999999998
 74
0
  0
LTYPE
  5
43
100
AcDbSymbolTableRecord
100
AcDbLinetypeTableRecord
  2
DASHED2
 70
0
  3
Dashed (.5x) _ _ _ _ _ _ _ _ _ _ _ _ _ _ _ _ _ 
 72
65
 73
2
 40
9.5249999999999986
 49
6.3499999999999996
 74
0
 49
-3.1749999999999998
 74
0
  0
LTYPE
  5
44
100
AcDbSymbolTableRecord
100
AcDbLinetypeTableRecord
  2
DASHDOT
 70
0
  3
Dash dot __ . __ . __ . __ . __ . __ . __ . __
 72
65
 73
4
 40
25.4000000000000021
 49
12.6999999999999993
 74
0
 49
-6.2999999999999998
 74
0
 49
0.1
 74
0
 49
-6.2999999999999998
 74
0
  0
LTYPE
  5
45
100
AcDbSymbolTableRecord
100
AcDbLinetypeTableRecord
  2
ACAD_ISO04W100
 70
0
  3
ISO long-dash dot ____ . ____ . ____ . ____ . _
 72
65
 73
4
 40
30.0
 49
24.0
 74
0
 49
-2.9500000000000002
 74
0
 49
0.1
 74
0
 49
-2.9500000000000002
 74
0
  0
LTYPE
  5
46
100
AcDbSymbolTableRecord
100
AcDbLinetypeTableRecord
  2
HOT_WATER_SUPPLY
 70
0
  3
Hot water supply ---- HW ---- HW ---- HW ----
 72
65
 73
2
 40
17.7800000000000011
 49
12.6999999999999993
 74
0
 49
-5.0800000000000001
 74
0
  0
LTYPE
  5
47
100
AcDbSymbolTableRecord
100
AcDbLinetypeTableRecord
  2
ACAD_ISO15W100
 70
0
  3
ISO double-dash triple-dot __ __ . . . __ __ . .
 72
65
 73
10
 40
39.0000000000000071
 49
12.0
 74
0
 49
-3.0
 74
0
 49
12.0
 74
0
 49
-2.9500000000000002
 74
0
 49
0.1
 74
0
 49
-2.9000000000000004
 74
0
 49
0.1
 74
0
 49
-2.9000000000000004
 74
0
 49
0.1
 74
0
 49
-2.9500000000000002
 74
0
  0
LTYPE
  5
48
100
AcDbSymbolTableRecord
100
AcDbLinetypeTableRecord
  2
DIVIDE
 70
0
  3
Divide ____ . . ____ . . ____ . . ____ . . ____
 72
65
 73
6
 40
31.7500000000000036
 49
12.6999999999999993
 74
0
 49
-6.2999999999999998
 74
0
 49
0.1
 74
0
 49
-6.25
 74
0
 49
0.1
 74
0
 49
-6.2999999999999998
 74
0
  0
LTYPE
  5
49
100
AcDbSymbolTableRecord
100
AcDbLinetypeTableRecord
  2
BATTING
 70
0
  3
Batting SSSSSSSSSSSSSSSSSSSSSSSSSSSSSSSSSSSSSSSSSSSSSSS
 72
65
 73
2
 40
2.5425400000000002
 49
0.00254
 74
0
 49
-2.54
 74
0
  0
LTYPE
  5
4A
100
AcDbSymbolTableRecord
100
AcDbLinetypeTableRecord
  2
ACAD_ISO09W100
 70
0
  3
ISO long-dash double-short-dash ____ __ __ ____
 72
65
 73
6
 40
45.0
 49
24.0
 74
0
 49
-3.0
 74
0
 49
6.0
 74
0
 49
-3.0
 74
0
 49
6.0
 74
0
 49
-3.0
 74
0
  0
LTYPE
  5
4B
100
AcDbSymbolTableRecord
100
AcDbLinetypeTableRecord
  2
BORDER
 70
0
  3
Border __ __ . __ __ . __ __ . __ __ . __ __ .
 72
65
 73
6
 40
44.4499999999999957
 49
12.6999999999999993
 74
0
 49
-6.3499999999999996
 74
0
 49
12.6999999999999993
 74
0
 49
-6.2999999999999998
 74
0
 49
0.1
 74
0
 49
-6.2999999999999998
 74
0
  0
LTYPE
  5
4C
100
AcDbSymbolTableRecord
100
AcDbLinetypeTableRecord
  2
ACAD_ISO14W100
 70
0
  3
ISO dash triple-dot __ . . . __ . . . __ . . . _
 72
65
 73
8
 40
24.0000000000000036
 49
12.0
 74
0
 49
-2.9500000000000002
 74
0
 49
0.1
 74
0
 49
-2.9000000000000004
 74
0
 49
0.1
 74
0
 49
-2.9000000000000004
 74
0
 49
0.1
 74
0
 49
-2.9500000000000002
 74
0
  0
LTYPE
  5
4D
100
AcDbSymbolTableRecord
100
AcDbLinetypeTableRecord
  2
DOTX2
 70
0
  3
Dot (2x) .  .  .  .  .  .  .  .  .  .  .  .  .  .
 72
65
 73
2
 40
12.6999999999999993
 49
0.1
 74
0
 49
-12.5999999999999996
 74
0
  0
LTYPE
  5
4E
100
AcDbSymbolTableRecord
100
AcDbLinetypeTableRecord
  2
HIDDENX2
 70
0
  3
Hidden (2x) ____ ____ ____ ____ ____ ____ ____ 
 72
65
 73
2
 40
19.0499999999999972
 49
12.6999999999999993
 74
0
 49
-6.3499999999999996
 74
0
  0
LTYPE
  5
14
100
AcDbSymbolTableRecord
100
AcDbLinetypeTableRecord
  2
BYBLOCK
 70
0
  3

 72
65
 73
0
 40
0.0
  0
LTYPE
  5
4F
100
AcDbSymbolTableRecord
100
AcDbLinetypeTableRecord
  2
ACAD_ISO07W100
 70
0
  3
ISO dot . . . . . . . . . . . . . . . . . . . . 
 72
65
 73
2
 40
3.0
 49
0.1
 74
0
 49
-2.8999999999999999
 74
0
  0
LTYPE
  5
50
100
AcDbSymbolTableRecord
100
AcDbLinetypeTableRecord
  2
TRACKS
 70
0
  3
Tracks -|-|-|-|-|-|-|-|-|-|-|-|-|-|-|-|-|-|-|-|-|-|-|-|-
 72
65
 73
1
 40
3.8100000000000001
 49
3.8100000000000001
 74
0
  0
LTYPE
  5
51
100
AcDbSymbolTableRecord
100
AcDbLinetypeTableRecord
  2
ZIGZAG
 70
0
  3
Zig zag /\/\/\/\/\/\/\/\/\/\/\/\/\/\/\/\/\/\/\/\/\/\/\/
 72
65
 73
2
 40
5.0825399999999998
 49
0.00254
 74
0
 49
-5.0800000000000001
 74
0
  0
LTYPE
  5
52
100
AcDbSymbolTableRecord
100
AcDbLinetypeTableRecord
  2
DOT
 70
0
  3
Dot . . . . . . . . . . . . . . . . . . . . . . . .
 72
65
 73
2
 40
6.3499999999999996
 49
0.1
 74
0
 49
-6.25
 74
0
  0
LTYPE
  5
53
100
AcDbSymbolTableRecord
100
AcDbLinetypeTableRecord
  2
DASHEDX2
 70
0
  3
Dashed (2x) ____  ____  ____  ____  ____  ___
 72
65
 73
2
 40
38.0999999999999943
 49
25.3999999999999986
 74
0
 49
-12.6999999999999993
 74
0
  0
LTYPE
  5
54
100
AcDbSymbolTableRecord
100
AcDbLinetypeTableRecord
  2
ACAD_ISO05W100
 70
0
  3
ISO long-dash double-dot ____ .. ____ .. ____ . 
 72
65
 73
6
 40
33.0000000000000071
 49
24.0
 74
0
 49
-2.9500000000000002
 74
0
 49
0.1
 74
0
 49
-2.9000000000000004
 74
0
 49
0.1
 74
0
 49
-2.9500000000000002
 74
0
  0
LTYPE
  5
55
100
AcDbSymbolTableRecord
100
AcDbLinetypeTableRecord
  2
FENCELINE2
 70
0
  3
Fenceline square ----[]-----[]----[]-----[]----[]---
 72
65
 73
2
 40
8.8900000000000006
 49
6.3499999999999996
 74
0
 49
-2.54
 74
0
  0
LTYPE
  5
15
100
AcDbSymbolTableRecord
100
AcDbLinetypeTableRecord
  2
BYLAYER
 70
0
  3

 72
65
 73
0
 40
0.0
  0
LTYPE
  5
56
100
AcDbSymbolTableRecord
100
AcDbLinetypeTableRecord
  2
DIVIDEX2
 70
0
  3
Divide (2x) ________  .  .  ________  .  .  _
 72
65
 73
6
 40
63.5
 49
25.3999999999999986
 74
0
 49
-12.6499999999999986
 74
0
 49
0.1
 74
0
 49
-12.5999999999999979
 74
0
 49
0.1
 74
0
 49
-12.6499999999999986
 74
0
  0
LTYPE
  5
57
100
AcDbSymbolTableRecord
100
AcDbLinetypeTableRecord
  2
ACAD_ISO10W100
 70
0
  3
ISO dash dot __ . __ . __ . __ . __ . __ . __ . 
 72
65
 73
4
 40
18.0
 49
12.0
 74
0
 49
-2.9500000000000002
 74
0
 49
0.1
 74
0
 49
-2.9500000000000002
 74
0
  0
LTYPE
  5
58
100
AcDbSymbolTableRecord
100
AcDbLinetypeTableRecord
  2
ACAD_ISO06W100
 70
0
  3
ISO long-dash triple-dot ____ ... ____ ... ____
 72
65
 73
8
 40
36.0000000000000071
 49
24.0
 74
0
 49
-2.9500000000000002
 74
0
 49
0.1
 74
0
 49
-2.9000000000000004
 74
0
 49
0.1
 74
0
 49
-2.9000000000000004
 74
0
 49
0.1
 74
0
 49
-2.9500000000000002
 74
0
  0
LTYPE
  5
59
100
AcDbSymbolTableRecord
100
AcDbLinetypeTableRecord
  2
DASHED
 70
0
  3
Dashed __ __ __ __ __ __ __ __ __ __ __ __ __ _
 72
65
 73
2
 40
19.0499999999999972
 49
12.6999999999999993
 74
0
 49
-6.3499999999999996
 74
0
  0
LTYPE
  5
5A
100
AcDbSymbolTableRecord
100
AcDbLinetypeTableRecord
  2
GAS_LINE
 70
0
  3
Gas line ----GAS----GAS----GAS----GAS----GAS----GAS--
 72
65
 73
2
 40
17.7800000000000011
 49
12.6999999999999993
 74
0
 49
-5.0800000000000001
 74
0
  0
LTYPE
  5
5B
100
AcDbSymbolTableRecord
100
AcDbLinetypeTableRecord
  2
DOT2
 70
0
  3
Dot (.5x) ........................................
 72
65
 73
2
 40
3.1749999999999998
 49
0.1
 74
0
 49
-3.0749999999999997
 74
0
  0
LTYPE
  5
5C
100
AcDbSymbolTableRecord
100
AcDbLinetypeTableRecord
  2
DRAINAGE2
 70
0
  3
Drainage reversed----<----<----<----
 72
65
 73
1
 40
5.0800000000000001
 49
5.0800000000000001
 74
0
  0
LTYPE
  5
5D
100
AcDbSymbolTableRecord
100
AcDbLinetypeTableRecord
  2
BORDERX2
 70
0
  3
Border (2x) ____  ____  .  ____  ____  .  ___
 72
65
 73
6
 40
88.8999999999999773
 49
25.3999999999999986
 74
0
 49
-12.6999999999999993
 74
0
 49
25.3999999999999986
 74
0
 49
-12.6499999999999986
 74
0
 49
0.1
 74
0
 49
-12.6499999999999986
 74
0
  0
LTYPE
  5
5E
100
AcDbSymbolTableRecord
100
AcDbLinetypeTableRecord
  2
DASHDOT2
 70
0
  3
Dash dot (.5x) _._._._._._._._._._._._._._._.
 72
65
 73
4
 40
12.6999999999999993
 49
6.3499999999999996
 74
0
 49
-3.125
 74
0
 49
0.1
 74
0
 49
-3.125
 74
0
  0
LTYPE
  5
5F
100
AcDbSymbolTableRecord
100
AcDbLinetypeTableRecord
  2
ACAD_ISO02W100
 70
0
  3
ISO dash __ __ __ __ __ __ __ __ __ __ __ __ __
 72
65
 73
2
 40
15.0
 49
12.0
 74
0
 49
-3.0
 74
0
  0
ENDTAB
  0
TABLE
  2
LAYER
  5
2
100
AcDbSymbolTable
 70
1
  0
LAYER
  5
10
100
AcDbSymbolTableRecord
100
AcDbLayerTableRecord
  2
0
 70
4
 62
7
420
16777215
  6
CONTINUOUS
370
5
390
F
  0
ENDTAB
  0
TABLE
  2
STYLE
  5
3
100
AcDbSymbolTable
 70
1
  0
STYLE
  5
60
100
AcDbSymbolTableRecord
100
AcDbTextStyleTableRecord
  2
Standard
 70
0
 40
0.0
 41
1.0
 50
0.0
 71
0
 42
2.5
  3

  4

1001
ACAD
1000
txt
1071
0
  0
ENDTAB
  0
TABLE
  2
VIEW
  5
6
100
AcDbSymbolTable
 70
0
  0
ENDTAB
  0
TABLE
  2
UCS
  5
7
100
AcDbSymbolTable
 70
0
  0
ENDTAB
  0
TABLE
  2
APPID
  5
9
100
AcDbSymbolTable
 70
1
  0
APPID
  5
12
100
AcDbSymbolTableRecord
100
AcDbRegAppTableRecord
  2
ACAD
 70
0
  0
APPID
  5
61
100
AcDbSymbolTableRecord
100
AcDbRegAppTableRecord
  2
QCAD
 70
0
  0
ENDTAB
  0
TABLE
  2
DIMSTYLE
  5
A
100
AcDbSymbolTable
 70
1
100
AcDbDimStyleTable
 71
0
  0
DIMSTYLE
105
27
100
AcDbSymbolTableRecord
100
AcDbDimStyleTableRecord
  2
Standard
 41
0.18
 42
0.0625
 43
3.75
 44
0.18
 70
0
 73
0
 74
0
 77
1
 78
8
140
0.18
141
2.5
143
0.03937007874016
147
0.09
171
3
172
1
271
2
272
2
274
3
278
44
283
0
284
8
340
60
  0
ENDTAB
  0
TABLE
  2
BLOCK_RECORD
  5
1
100
AcDbSymbolTable
 70
1
  0
BLOCK_RECORD
  5
1F
100
AcDbSymbolTableRecord
100
AcDbBlockTableRecord
  2
*Model_Space
340
22
  0
BLOCK_RECORD
  5
1B
100
AcDbSymbolTableRecord
100
AcDbBlockTableRecord
  2
*Paper_Space
340
1E
  0
BLOCK_RECORD
  5
23
100
AcDbSymbolTableRecord
100
AcDbBlockTableRecord
  2
*Paper_Space0
340
26
  0
ENDTAB
  0
ENDSEC
  0
SECTION
  2
BLOCKS
  0
BLOCK
  5
20
100
AcDbEntity
  8
0
100
AcDbBlockBegin
  2
*Model_Space
 70
0
 10
0.0
 20
0.0
 30
0.0
  3
*Model_Space
  1

  0
ENDBLK
  5
21
100
AcDbEntity
  8
0
100
AcDbBlockEnd
  0
BLOCK
  5
1C
100
AcDbEntity
 67
1
  8
0
100
AcDbBlockBegin
  2
*Paper_Space
 70
0
 10
0.0
 20
0.0
 30
0.0
  3
*Paper_Space
  1

  0
ENDBLK
  5
1D
100
AcDbEntity
 67
1
  8
0
100
AcDbBlockEnd
  0
BLOCK
  5
24
100
AcDbEntity
  8
0
100
AcDbBlockBegin
  2
*Paper_Space0
 70
0
 10
0.0
 20
0.0
 30
0.0
  3
*Paper_Space0
  1

  0
ENDBLK
  5
25
100
AcDbEntity
  8
0
100
AcDbBlockEnd
  0
ENDSEC
  0
SECTION
  2
ENTITIES
  0
LINE
  5
62
100
AcDbEntity
  8
0
 62
256
370
-1
 48
1.0
  6
BYLAYER
100
AcDbLine
 10
103.7340002325173032
 20
16.24999999999946
 30
0.0
 11
103.7340002325173032
 21
14.2499999999995204
 31
0.0
  0
LINE
  5
63
100
AcDbEntity
  8
0
 62
256
370
-1
 48
1.0
  6
BYLAYER
100
AcDbLine
 10
103.7340002325173032
 20
-16.24999999999946
 30
0.0
 11
103.7340002325173032
 21
-14.2499999999995222
 31
0.0
  0
LINE
  5
64
100
AcDbEntity
  8
0
 62
256
370
-1
 48
1.0
  6
BYLAYER
100
AcDbLine
 10
93.5433130620461668
 20
7.5423022288826473
 30
0.0
 11
100.0682414358594059
 21
6.516253829651518
 31
0.0
  0
ARC
  5
65
100
AcDbEntity
  8
0
 62
256
370
-1
 48
1.0
  6
BYLAYER
100
AcDbCircle
 10
93.3879714331630595
 20
6.5544414196914289
 30
0.0
 40
1.000000000000006
100
AcDbArc
 50
81.063389861115013
 51
195.9644464190641884
  0
LINE
  5
66
100
AcDbEntity
  8
0
 62
256
370
-1
 48
1.0
  6
BYLAYER
100
AcDbLine
 10
93.6648547890451511
 20
1.9507440510020899
 30
0.0
 11
92.4265388818696607
 21
6.2794006057864777
 31
0.0
  0
ARC
  5
67
100
AcDbEntity
  8
0
 62
256
370
-1
 48
1.0
  6
BYLAYER
100
AcDbCircle
 10
94.6262873403385356
 20
2.225784864906998
 30
0.0
 40
0.9999999999999875
100
AcDbArc
 50
195.9644464190633073
 51
301.9934993458022063
  0
LINE
  5
68
100
AcDbEntity
  8
0
 62
256
370
-1
 48
1.0
  6
BYLAYER
100
AcDbLine
 10
100.442722850111295
 20
4.6802848062781237
 30
0.0
 11
95.1561103834735604
 21
1.377676650724879
 31
0.0
  0
ARC
  5
69
100
AcDbEntity
  8
0
 62
256
370
-1
 48
1.0
  6
BYLAYER
100
AcDbCircle
 10
99.9128998069762844
 20
5.5283930204602996
 30
0.0
 40
1.000000000000014
100
AcDbArc
 50
301.9934993458015811
 51
81.0633898611132935
  0
LINE
  5
6A
100
AcDbEntity
  8
0
 62
256
370
-1
 48
1.0
  6
BYLAYER
100
AcDbLine
 10
105.7090738469377982
 20
2.9282788589451632
 30
0.0
 11
106.4680961521528957
 21
0.2750408139044254
 31
0.0
  0
ARC
  5
6B
100
AcDbEntity
  8
0
 62
256
370
-1
 48
1.0
  6
BYLAYER
100
AcDbCircle
 10
105.5066636008594969
 20
-0.0000000000005116
 30
0.0
 40
1.0000000000000151
100
AcDbArc
 50
344.035553580936778
 51
15.9644464190631101
  0
LINE
  5
6C
100
AcDbEntity
  8
0
 62
256
370
-1
 48
1.0
  6
BYLAYER
100
AcDbLine
 10
106.4680961521528957
 20
-0.2750408139054485
 30
0.0
 11
105.7090738469377982
 21
-2.928278858946094
 31
0.0
  0
ARC
  5
6D
100
AcDbEntity
  8
0
 62
256
370
-1
 48
1.0
  6
BYLAYER
100
AcDbCircle
 10
104.7476412956443994
 20
-2.6532380450411348
 30
0.0
 40
1.000000000000012
100
AcDbArc
 50
238.0065006541786374
 51
344.0355535809367211
  0
LINE
  5
6E
100
AcDbEntity
  8
0
 62
256
370
-1
 48
1.0
  6
BYLAYER
100
AcDbLine
 10
104.2178182525091046
 20
-3.50134625922307
 30
0.0
 11
99.9706776093563008
 21
-0.848108214182389
 31
0.0
  0
ARC
  5
6F
100
AcDbEntity
  8
0
 62
256
370
-1
 48
1.0
  6
BYLAYER
100
AcDbCircle
 10
100.5005006524915956
 20
-0.0000000000004832
 30
0.0
 40
1.0000000000000011
100
AcDbArc
 50
121.9934993458222863
 51
238.0065006541775574
  0
LINE
  5
70
100
AcDbEntity
  8
0
 62
256
370
-1
 48
1.0
  6
BYLAYER
100
AcDbLine
 10
99.9706776093563008
 20
0.8481082141814227
 30
0.0
 11
104.2178182525091046
 21
3.50134625922216
 31
0.0
  0
ARC
  5
71
100
AcDbEntity
  8
0
 62
256
370
-1
 48
1.0
  6
BYLAYER
100
AcDbCircle
 10
104.7476412956443994
 20
2.6532380450402262
 30
0.0
 40
1.000000000000002
100
AcDbArc
 50
15.9644464190626607
 51
121.9934993458221868
  0
LINE
  5
72
100
AcDbEntity
  8
0
 62
256
370
-1
 48
1.0
  6
BYLAYER
100
AcDbLine
 10
54.1951344988105319
 20
3.917735509647073
 30
0.0
 11
59.1088055017843388
 21
0.8481082141814085
 31
0.0
  0
ARC
  5
73
100
AcDbEntity
  8
0
 62
256
370
-1
 48
1.0
  6
BYLAYER
100
AcDbCircle
 10
58.5789824586490084
 20
-0.0000000000004547
 30
0.0
 40
1.0000000000000011
100
AcDbArc
 50
301.9934993458222721
 51
58.0065006541778203
  0
LINE
  5
74
100
AcDbEntity
  8
0
 62
256
370
-1
 48
1.0
  6
BYLAYER
100
AcDbLine
 10
59.1088055017843388
 20
-0.848108214182389
 30
0.0
 11
54.1951344988105177
 21
-3.917735509648026
 31
0.0
  0
ARC
  5
75
100
AcDbEntity
  8
0
 62
256
370
-1
 48
1.0
  6
BYLAYER
100
AcDbCircle
 10
53.6653114556752016
 20
-3.0696272954661201
 30
0.0
 40
0.9999999999999952
100
AcDbArc
 50
195.4508916167011989
 51
301.9934993458222721
  0
LINE
  5
76
100
AcDbEntity
  8
0
 62
256
370
-1
 48
1.0
  6
BYLAYER
100
AcDbLine
 10
52.7014523056401529
 20
-3.3360396429534589
 30
0.0
 11
51.8530019758731626
 21
-0.2664123474878011
 31
0.0
  0
ARC
  5
77
100
AcDbEntity
  8
0
 62
256
370
-1
 48
1.0
  6
BYLAYER
100
AcDbCircle
 10
52.8168611259081615
 20
-0.0000000000005116
 30
0.0
 40
0.999999999999951
100
AcDbArc
 50
164.5491083832974937
 51
195.4508916167011421
  0
LINE
  5
78
100
AcDbEntity
  8
0
 62
256
370
-1
 48
1.0
  6
BYLAYER
100
AcDbLine
 10
51.8530019758731626
 20
0.2664123474868347
 30
0.0
 11
52.7014523056401529
 21
3.3360396429525281
 31
0.0
  0
ARC
  5
79
100
AcDbEntity
  8
0
 62
256
370
-1
 48
1.0
  6
BYLAYER
100
AcDbCircle
 10
53.6653114556751873
 20
3.0696272954651822
 30
0.0
 40
1.0
100
AcDbArc
 50
58.0065006541776214
 51
164.5491083832989148
  0
LINE
  5
7A
100
AcDbEntity
  8
0
 62
256
370
-1
 48
1.0
  6
BYLAYER
100
AcDbLine
 10
0.1538264186634639
 20
-14.4999999999551594
 30
0.0
 11
25.1538264186635203
 21
-14.4999999999553602
 31
0.0
  0
ARC
  5
7B
100
AcDbEntity
  8
0
 62
256
370
-1
 48
1.0
  6
BYLAYER
100
AcDbCircle
 10
25.153826418663499
 20
-15.4999999999553992
 30
0.0
 40
1.0000000000000011
100
AcDbArc
 50
270.0
 51
90.0
  0
LINE
  5
7C
100
AcDbEntity
  8
0
 62
256
370
-1
 48
1.0
  6
BYLAYER
100
AcDbLine
 10
25.153826418663499
 20
-16.4999999999553886
 30
0.0
 11
0.1538264186634648
 21
-16.4999999999551612
 31
0.0
  0
ARC
  5
7D
100
AcDbEntity
  8
0
 62
256
370
-1
 48
1.0
  6
BYLAYER
100
AcDbCircle
 10
0.1538264186634759
 20
-15.4999999999551594
 30
0.0
 40
0.9999999999999987
100
AcDbArc
 50
90.0
 51
270.0
  0
LINE
  5
7E
100
AcDbEntity
  8
0
 62
256
370
-1
 48
1.0
  6
BYLAYER
100
AcDbLine
 10
4.5090001997716938
 20
12.1999999999999957
 30
0.0
 11
14.5090001997717017
 21
12.1999999999999957
 31
0.0
  0
ARC
  5
7F
100
AcDbEntity
  8
0
 62
256
370
-1
 48
1.0
  6
BYLAYER
100
AcDbCircle
 10
14.5090001997717124
 20
11.0999999999999872
 30
0.0
 40
1.099999999999999
100
AcDbArc
 50
270.0
 51
90.0
  0
LINE
  5
80
100
AcDbEntity
  8
0
 62
256
370
-1
 48
1.0
  6
BYLAYER
100
AcDbLine
 10
14.5090001997717124
 20
10.0000000000000071
 30
0.0
 11
4.5090001997716742
 21
9.9999999999999929
 31
0.0
  0
ARC
  5
81
100
AcDbEntity
  8
0
 62
256
370
-1
 48
1.0
  6
BYLAYER
100
AcDbCircle
 10
4.5090001997716795
 20
11.0999999999999872
 30
0.0
 40
1.1000000000000021
100
AcDbArc
 50
90.0
 51
270.0
  0
ARC
  5
82
100
AcDbEntity
  8
0
 62
256
370
-1
 48
1.0
  6
BYLAYER
100
AcDbCircle
 10
62.0590002161443977
 20
-4.9005614284360206
 30
0.0
 40
1.0000000000000071
100
AcDbArc
 50
58.0065006541812167
 51
121.9934993458192736
  0
LINE
  5
83
100
AcDbEntity
  8
0
 62
256
370
-1
 48
1.0
  6
BYLAYER
100
AcDbLine
 10
57.0901183496799476
 20
-6.8255847735344446
 30
0.0
 11
61.529177173009117
 21
-4.0524532142540863
 31
0.0
  0
ARC
  5
84
100
AcDbEntity
  8
0
 62
256
370
-1
 48
1.0
  6
BYLAYER
100
AcDbCircle
 10
57.5669590885017328
 20
-7.5888821662981627
 30
0.0
 40
0.9000000000000008
100
AcDbArc
 50
121.9934993458196999
 51
269.7159018302996856
  0
ELLIPSE
  5
85
100
AcDbEntity
  8
0
 62
256
370
-1
 48
1.0
  6
BYLAYER
100
AcDbEllipse
 10
62.0590002161444829
 20
-0.0000000000004832
 30
0.0
 11
87.8993273841497853
 21
-0.0000000000008803
 31
0.0
 40
0.096701536324698
 41
4.6612114882200606
 42
4.7635664189594529
  0
ARC
  5
86
100
AcDbEntity
  8
0
 62
256
370
-1
 48
1.0
  6
BYLAYER
100
AcDbCircle
 10
66.5510413437873183
 20
-7.5888821662982551
 30
0.0
 40
0.899999999999999
100
AcDbArc
 50
270.2837986780655228
 51
58.0065006541810178
  0
LINE
  5
87
100
AcDbEntity
  8
0
 62
256
370
-1
 48
1.0
  6
BYLAYER
100
AcDbLine
 10
62.5888232592796783
 20
-4.0524532142540863
 30
0.0
 11
67.0278820826090538
 21
-6.8255847735345228
 31
0.0
  0
LINE
  5
88
100
AcDbEntity
  8
0
 62
256
370
-1
 48
1.0
  6
BYLAYER
100
AcDbLine
 10
36.3897931969139421
 20
4.877491545971381
 30
0.0
 11
42.8397827661831911
 21
0.8481082141816216
 31
0.0
  0
ARC
  5
89
100
AcDbEntity
  8
0
 62
256
370
-1
 48
1.0
  6
BYLAYER
100
AcDbCircle
 10
42.3099597230481805
 20
-0.0000000000004547
 30
0.0
 40
1.0000000000000011
100
AcDbArc
 50
301.9934993458010126
 51
58.0065006541988311
  0
LINE
  5
8A
100
AcDbEntity
  8
0
 62
256
370
-1
 48
1.0
  6
BYLAYER
100
AcDbLine
 10
42.8397827661831911
 20
-0.8481082141825738
 30
0.0
 11
36.3897931969139492
 21
-4.8774915459723331
 31
0.0
  0
ARC
  5
8B
100
AcDbEntity
  8
0
 62
256
370
-1
 48
1.0
  6
BYLAYER
100
AcDbCircle
 10
35.8599701537789315
 20
-4.0293833317902283
 30
0.0
 40
0.9999999999999977
100
AcDbArc
 50
195.9644464190625968
 51
301.9934993458015242
  0
LINE
  5
8C
100
AcDbEntity
  8
0
 62
256
370
-1
 48
1.0
  6
BYLAYER
100
AcDbLine
 10
34.8985376024855398
 20
-4.3044241456951653
 30
0.0
 11
33.7458359703018473
 21
-0.2750408139054059
 31
0.0
  0
ARC
  5
8D
100
AcDbEntity
  8
0
 62
256
370
-1
 48
1.0
  6
BYLAYER
100
AcDbCircle
 10
34.707268521595303
 20
-0.0000000000004832
 30
0.0
 40
1.0000000000000411
100
AcDbArc
 50
164.0355535809370906
 51
195.9644464190625968
  0
LINE
  5
8E
100
AcDbEntity
  8
0
 62
256
370
-1
 48
1.0
  6
BYLAYER
100
AcDbLine
 10
33.7458359703018473
 20
0.275040813904468
 30
0.0
 11
34.8985376024855469
 21
4.3044241456942132
 31
0.0
  0
ARC
  5
8F
100
AcDbEntity
  8
0
 62
256
370
-1
 48
1.0
  6
BYLAYER
100
AcDbCircle
 10
35.8599701537789173
 20
4.0293833317892904
 30
0.0
 40
1.000000000000002
100
AcDbArc
 50
58.0065006541991934
 51
164.0355535809367211
  0
ARC
  5
90
100
AcDbEntity
  8
0
 62
256
370
-1
 48
1.0
  6
BYLAYER
100
AcDbCircle
 10
29.4917130919504302
 20
2.2257848649070269
 30
0.0
 40
0.9999999999999993
100
AcDbArc
 50
238.0065006541991011
 51
344.0355535809359822
  0
LINE
  5
91
100
AcDbEntity
  8
0
 62
256
370
-1
 48
1.0
  6
BYLAYER
100
AcDbLine
 10
28.9618900488154303
 20
1.37767665072495
 30
0.0
 11
23.6752775821776709
 21
4.6802848062781663
 31
0.0
  0
ARC
  5
92
100
AcDbEntity
  8
0
 62
256
370
-1
 48
1.0
  6
BYLAYER
100
AcDbCircle
 10
24.2051006253126815
 20
5.5283930204602854
 30
0.0
 40
1.000000000000004
100
AcDbArc
 50
98.9366101388868628
 51
238.006500654199499
  0
LINE
  5
93
100
AcDbEntity
  8
0
 62
256
370
-1
 48
1.0
  6
BYLAYER
100
AcDbLine
 10
24.0497589964295386
 20
6.5162538296515038
 30
0.0
 11
30.5746873702428097
 21
7.5423022288826758
 31
0.0
  0
ARC
  5
94
100
AcDbEntity
  8
0
 62
256
370
-1
 48
1.0
  6
BYLAYER
100
AcDbCircle
 10
30.7300289991259099
 20
6.5544414196914573
 30
0.0
 40
1.00000000000001
100
AcDbArc
 50
344.0355535809359822
 51
98.9366101388847312
  0
LINE
  5
95
100
AcDbEntity
  8
0
 62
256
370
-1
 48
1.0
  6
BYLAYER
100
AcDbLine
 10
31.6914615504193087
 20
6.2794006057865062
 30
0.0
 11
30.4531456432438397
 21
1.9507440510020759
 31
0.0
  0
LINE
  5
96
100
AcDbEntity
  8
0
 62
256
370
-1
 48
1.0
  6
BYLAYER
100
AcDbLine
 10
4.5090001997716964
 20
-9.999999999999984
 30
0.0
 11
14.5090001997716698
 21
-10.0000000000000124
 31
0.0
  0
ARC
  5
97
100
AcDbEntity
  8
0
 62
256
370
-1
 48
1.0
  6
BYLAYER
100
AcDbCircle
 10
14.5090001997716893
 20
-11.1000000000000068
 30
0.0
 40
1.099999999999999
100
AcDbArc
 50
270.0
 51
90.0
  0
LINE
  5
98
100
AcDbEntity
  8
0
 62
256
370
-1
 48
1.0
  6
BYLAYER
100
AcDbLine
 10
14.5090001997716893
 20
-12.2000000000000082
 30
0.0
 11
4.5090001997716964
 21
-12.1999999999999993
 31
0.0
  0
ARC
  5
99
100
AcDbEntity
  8
0
 62
256
370
-1
 48
1.0
  6
BYLAYER
100
AcDbCircle
 10
4.5090001997716973
 20
-11.0999999999999925
 30
0.0
 40
1.100000000000013
100
AcDbArc
 50
90.0
 51
270.0
  0
LINE
  5
9A
100
AcDbEntity
  8
0
 62
256
370
-1
 48
1.0
  6
BYLAYER
100
AcDbLine
 10
100.0682414358594059
 20
-6.516253829652392
 30
0.0
 11
93.5433130620461952
 21
-7.5423022288836492
 31
0.0
  0
ARC
  5
9B
100
AcDbEntity
  8
0
 62
256
370
-1
 48
1.0
  6
BYLAYER
100
AcDbCircle
 10
99.9128998069762986
 20
-5.5283930204611744
 30
0.0
 40
0.999999999999997
100
AcDbArc
 50
278.9366101388861239
 51
58.0065006541996979
  0
LINE
  5
9C
100
AcDbEntity
  8
0
 62
256
370
-1
 48
1.0
  6
BYLAYER
100
AcDbLine
 10
95.1561103834735462
 20
-1.377676650725888
 30
0.0
 11
100.442722850111295
 21
-4.6802848062791043
 31
0.0
  0
ARC
  5
9D
100
AcDbEntity
  8
0
 62
256
370
-1
 48
1.0
  6
BYLAYER
100
AcDbCircle
 10
94.6262873403385356
 20
-2.225784864908007
 30
0.0
 40
0.9999999999999921
100
AcDbArc
 50
58.0065006541985824
 51
164.0355535809354706
  0
LINE
  5
9E
100
AcDbEntity
  8
0
 62
256
370
-1
 48
1.0
  6
BYLAYER
100
AcDbLine
 10
92.4265388818696607
 20
-6.2794006057874654
 30
0.0
 11
93.6648547890451653
 21
-1.950744051002999
 31
0.0
  0
ARC
  5
9F
100
AcDbEntity
  8
0
 62
256
370
-1
 48
1.0
  6
BYLAYER
100
AcDbCircle
 10
93.3879714331630453
 20
-6.5544414196924166
 30
0.0
 40
1.0000000000000071
100
AcDbArc
 50
164.0355535809356127
 51
278.9366101388865218
  0
LINE
  5
A0
100
AcDbEntity
  8
0
 62
256
370
-1
 48
1.0
  6
BYLAYER
100
AcDbLine
 10
76.5590002161444971
 20
14.4999999999543299
 30
0.0
 11
47.55900021614449
 21
14.4999999999543494
 31
0.0
  0
ARC
  5
A1
100
AcDbEntity
  8
0
 62
256
370
-1
 48
1.0
  6
BYLAYER
100
AcDbCircle
 10
47.55900021614449
 20
15.4999999999543707
 30
0.0
 40
1.0000000000000011
100
AcDbArc
 50
90.0
 51
270.0
  0
LINE
  5
A2
100
AcDbEntity
  8
0
 62
256
370
-1
 48
1.0
  6
BYLAYER
100
AcDbLine
 10
47.55900021614449
 20
16.4999999999543689
 30
0.0
 11
76.5590002161444829
 21
16.4999999999543689
 31
0.0
  0
ARC
  5
A3
100
AcDbEntity
  8
0
 62
256
370
-1
 48
1.0
  6
BYLAYER
100
AcDbCircle
 10
76.5590002161444971
 20
15.4999999999543707
 30
0.0
 40
1.0000000000000011
100
AcDbArc
 50
270.0
 51
90.0
  0
LINE
  5
A4
100
AcDbEntity
  8
0
 62
256
370
-1
 48
1.0
  6
BYLAYER
100
AcDbLine
 10
47.5590002161444829
 20
-14.4999999999553104
 30
0.0
 11
76.5590002161444829
 21
-14.4999999999553104
 31
0.0
  0
ARC
  5
A5
100
AcDbEntity
  8
0
 62
256
370
-1
 48
1.0
  6
BYLAYER
100
AcDbCircle
 10
76.5590002161444829
 20
-15.4999999999552909
 30
0.0
 40
0.9999999999999987
100
AcDbArc
 50
270.0
 51
90.0
  0
LINE
  5
A6
100
AcDbEntity
  8
0
 62
256
370
-1
 48
1.0
  6
BYLAYER
100
AcDbLine
 10
76.5590002161444829
 20
-16.4999999999552998
 30
0.0
 11
47.5590002161444829
 21
-16.4999999999552891
 31
0.0
  0
ARC
  5
A7
100
AcDbEntity
  8
0
 62
256
370
-1
 48
1.0
  6
BYLAYER
100
AcDbCircle
 10
47.5590002161444829
 20
-15.4999999999553193
 30
0.0
 40
1.0000000000000031
100
AcDbArc
 50
90.0
 51
270.0
  0
LINE
  5
A8
100
AcDbEntity
  8
0
 62
256
370
-1
 48
1.0
  6
BYLAYER
100
AcDbLine
 10
49.3980196251001473
 20
7.2586997026161129
 30
0.0
 11
48.389431213681533
 21
3.6121774039989991
 31
0.0
  0
ARC
  5
A9
100
AcDbEntity
  8
0
 62
256
370
-1
 48
1.0
  6
BYLAYER
100
AcDbCircle
 10
48.5305881414881526
 20
7.4986218175590116
 30
0.0
 40
0.9000000000000024
100
AcDbArc
 50
344.5391345917810781
 51
90.8635486253581774
  0
ELLIPSE
  5
AA
100
AcDbEntity
  8
0
 62
256
370
-1
 48
1.0
  6
BYLAYER
100
AcDbEllipse
 10
62.0590002161444829
 20
-0.0000000000004832
 30
0.0
 11
87.8993273841497853
 21
0.0000000000008372
 31
0.0
 40
0.096701536324698
 41
1.7254747209439929
 42
1.805337406586172
  0
ARC
  5
AB
100
AcDbEntity
  8
0
 62
256
370
-1
 48
1.0
  6
BYLAYER
100
AcDbCircle
 10
41.6522801937672398
 20
7.367519456979494
 30
0.0
 40
0.8999999999999951
100
AcDbArc
 50
91.3236245575600663
 51
238.006500654198959
  0
LINE
  5
AC
100
AcDbEntity
  8
0
 62
256
370
-1
 48
1.0
  6
BYLAYER
100
AcDbLine
 10
46.8957954109776409
 20
3.0306493175312572
 30
0.0
 11
41.1754394549457103
 21
6.6042220642156479
 31
0.0
  0
ARC
  5
AD
100
AcDbEntity
  8
0
 62
256
370
-1
 48
1.0
  6
BYLAYER
100
AcDbCircle
 10
47.4256184541126373
 20
3.8787575317133758
 30
0.0
 40
1.000000000000002
100
AcDbArc
 50
238.0065006541996127
 51
344.539134591781476
  0
ARC
  5
AE
100
AcDbEntity
  8
0
 62
256
370
-1
 48
1.0
  6
BYLAYER
100
AcDbCircle
 10
89.4107319106936842
 20
-0.0000000000005116
 30
0.0
 40
1.000000000000032
100
AcDbArc
 50
344.0355535809368916
 51
15.9644464190629058
  0
LINE
  5
AF
100
AcDbEntity
  8
0
 62
256
370
-1
 48
1.0
  6
BYLAYER
100
AcDbLine
 10
89.2194628298024384
 20
4.3044241456976238
 30
0.0
 11
90.3721644619871114
 21
0.2750408139044964
 31
0.0
  0
ARC
  5
B0
100
AcDbEntity
  8
0
 62
256
370
-1
 48
1.0
  6
BYLAYER
100
AcDbCircle
 10
88.2580302785090538
 20
4.0293833317926868
 30
0.0
 40
0.9999999999999984
100
AcDbArc
 50
15.9644464190636199
 51
121.9934993458225847
  0
LINE
  5
B1
100
AcDbEntity
  8
0
 62
256
370
-1
 48
1.0
  6
BYLAYER
100
AcDbLine
 10
81.2782176661043252
 20
0.8481082141814369
 30
0.0
 11
87.7282072353737163
 21
4.8774915459746504
 31
0.0
  0
ARC
  5
B2
100
AcDbEntity
  8
0
 62
256
370
-1
 48
1.0
  6
BYLAYER
100
AcDbCircle
 10
81.8080407092396626
 20
-0.000000000000469
 30
0.0
 40
1.000000000000006
100
AcDbArc
 50
121.9934993458227979
 51
238.0065006541771879
  0
LINE
  5
B3
100
AcDbEntity
  8
0
 62
256
370
-1
 48
1.0
  6
BYLAYER
100
AcDbLine
 10
87.7282072353737306
 20
-4.8774915459755874
 30
0.0
 11
81.2782176661043252
 21
-0.848108214182389
 31
0.0
  0
ARC
  5
B4
100
AcDbEntity
  8
0
 62
256
370
-1
 48
1.0
  6
BYLAYER
100
AcDbCircle
 10
88.2580302785090538
 20
-4.02938333179371
 30
0.0
 40
0.9999999999999993
100
AcDbArc
 50
238.0065006541784385
 51
344.0355535809362095
  0
LINE
  5
B5
100
AcDbEntity
  8
0
 62
256
370
-1
 48
1.0
  6
BYLAYER
100
AcDbLine
 10
90.3721644619871114
 20
-0.2750408139053775
 30
0.0
 11
89.2194628298024242
 21
-4.3044241456985759
 31
0.0
  0
LINE
  5
B6
100
AcDbEntity
  8
0
 62
256
370
-1
 48
1.0
  6
BYLAYER
100
AcDbLine
 10
77.2222050213114812
 20
-3.0306493175328981
 30
0.0
 11
82.942560977338573
 21
-6.604222064217268
 31
0.0
  0
ARC
  5
B7
100
AcDbEntity
  8
0
 62
256
370
-1
 48
1.0
  6
BYLAYER
100
AcDbCircle
 10
82.4657202385167807
 20
-7.3675194569810074
 30
0.0
 40
0.9000000000000004
100
AcDbArc
 50
271.3236245575557177
 51
58.0065006541776214
  0
ELLIPSE
  5
B8
100
AcDbEntity
  8
0
 62
256
370
-1
 48
1.0
  6
BYLAYER
100
AcDbEllipse
 10
62.0590002161444829
 20
-0.0000000000004832
 30
0.0
 11
87.8993273841497853
 21
-0.0000000000008803
 31
0.0
 40
0.096701536324698
 41
4.867067428123363
 42
4.9469300601759079
  0
ARC
  5
B9
100
AcDbEntity
  8
0
 62
256
370
-1
 48
1.0
  6
BYLAYER
100
AcDbCircle
 10
75.5874122908007564
 20
-7.4986218175602266
 30
0.0
 40
0.9000000000000006
100
AcDbArc
 50
164.5391345917815045
 51
270.8638449589743118
  0
LINE
  5
BA
100
AcDbEntity
  8
0
 62
256
370
-1
 48
1.0
  6
BYLAYER
100
AcDbLine
 10
74.7199808071887333
 20
-7.2586997026173279
 30
0.0
 11
75.7285692186072907
 21
-3.612177404000469
 31
0.0
  0
ARC
  5
BB
100
AcDbEntity
  8
0
 62
256
370
-1
 48
1.0
  6
BYLAYER
100
AcDbCircle
 10
76.6923819781761722
 20
-3.8787575317148111
 30
0.0
 40
1.000000000000002
100
AcDbArc
 50
58.00650065417787
 51
164.5391345917815897
  0
LINE
  5
BC
100
AcDbEntity
  8
0
 62
256
370
-1
 48
1.0
  6
BYLAYER
100
AcDbLine
 10
61.529177173009117
 20
4.0524532142531342
 30
0.0
 11
57.0901183496799689
 21
6.8255847735334916
 31
0.0
  0
ARC
  5
BD
100
AcDbEntity
  8
0
 62
256
370
-1
 48
1.0
  6
BYLAYER
100
AcDbCircle
 10
62.0590002161443977
 20
4.9005614284350543
 30
0.0
 40
1.000000000000006
100
AcDbArc
 50
238.0065006541805133
 51
301.9934993458194867
  0
LINE
  5
BE
100
AcDbEntity
  8
0
 62
256
370
-1
 48
1.0
  6
BYLAYER
100
AcDbLine
 10
67.0278820826090538
 20
6.8255847735336062
 30
0.0
 11
62.5888232592796925
 21
4.05245321425312
 31
0.0
  0
ARC
  5
BF
100
AcDbEntity
  8
0
 62
256
370
-1
 48
1.0
  6
BYLAYER
100
AcDbCircle
 10
66.5510413437873325
 20
7.5888821662973376
 30
0.0
 40
0.899999999999997
100
AcDbArc
 50
301.9934993458189751
 51
89.716201321933184
  0
ELLIPSE
  5
C0
100
AcDbEntity
  8
0
 62
256
370
-1
 48
1.0
  6
BYLAYER
100
AcDbEllipse
 10
62.0590002161444829
 20
-0.0000000000004832
 30
0.0
 11
87.8993273841497853
 21
0.0000000000008372
 31
0.0
 40
0.096701536324698
 41
1.519618888220132
 42
1.621973765369658
  0
ARC
  5
C1
100
AcDbEntity
  8
0
 62
256
370
-1
 48
1.0
  6
BYLAYER
100
AcDbCircle
 10
57.5669590885017328
 20
7.5888821662972532
 30
0.0
 40
0.899999999999999
100
AcDbArc
 50
90.2837986780655797
 51
238.0065006541809964
  0
LINE
  5
C2
100
AcDbEntity
  8
0
 62
256
370
-1
 48
1.0
  6
BYLAYER
100
AcDbLine
 10
25.1538264186635097
 20
14.4999999999544507
 30
0.0
 11
0.1538264186635034
 21
14.4999999999542606
 31
0.0
  0
ARC
  5
C3
100
AcDbEntity
  8
0
 62
256
370
-1
 48
1.0
  6
BYLAYER
100
AcDbCircle
 10
0.1538264186635168
 20
15.4999999999542606
 30
0.0
 40
1.0000000000000011
100
AcDbArc
 50
90.0
 51
270.0
  0
LINE
  5
C4
100
AcDbEntity
  8
0
 62
256
370
-1
 48
1.0
  6
BYLAYER
100
AcDbLine
 10
0.153826418663515
 20
16.4999999999542588
 30
0.0
 11
25.1538264186635097
 21
16.4999999999544507
 31
0.0
  0
ARC
  5
C5
100
AcDbEntity
  8
0
 62
256
370
-1
 48
1.0
  6
BYLAYER
100
AcDbCircle
 10
25.1538264186635097
 20
15.4999999999544702
 30
0.0
 40
1.0000000000000011
100
AcDbArc
 50
270.0
 51
90.0
  0
ARC
  5
C6
100
AcDbEntity
  8
0
 62
256
370
-1
 48
1.0
  6
BYLAYER
100
AcDbCircle
 10
75.5874122908007422
 20
7.4986218175592683
 30
0.0
 40
0.8999999999999873
100
AcDbArc
 50
89.1361550410240113
 51
195.4608654082184955
  0
ELLIPSE
  5
C7
100
AcDbEntity
  8
0
 62
256
370
-1
 48
1.0
  6
BYLAYER
100
AcDbEllipse
 10
62.0590002161444829
 20
-0.0000000000004832
 30
0.0
 11
87.8993273841497853
 21
0.0000000000008372
 31
0.0
 40
0.096701536324698
 41
1.336255247003677
 42
1.416117879056223
  0
ARC
  5
C8
100
AcDbEntity
  8
0
 62
256
370
-1
 48
1.0
  6
BYLAYER
100
AcDbCircle
 10
82.4657202385167807
 20
7.3675194569800482
 30
0.0
 40
0.8999999999999958
100
AcDbArc
 50
301.9934993458222721
 51
88.6763754424427191
  0
LINE
  5
C9
100
AcDbEntity
  8
0
 62
256
370
-1
 48
1.0
  6
BYLAYER
100
AcDbLine
 10
82.942560977338573
 20
6.6042220642163016
 30
0.0
 11
77.2222050213115097
 21
3.0306493175319251
 31
0.0
  0
ARC
  5
CA
100
AcDbEntity
  8
0
 62
256
370
-1
 48
1.0
  6
BYLAYER
100
AcDbCircle
 10
76.6923819781761864
 20
3.8787575317138452
 30
0.0
 40
1.0000000000000111
100
AcDbArc
 50
195.4608654082182966
 51
301.9934993458217036
  0
LINE
  5
CB
100
AcDbEntity
  8
0
 62
256
370
-1
 48
1.0
  6
BYLAYER
100
AcDbLine
 10
75.7285692186072907
 20
3.6121774039995098
 30
0.0
 11
74.7199808071887759
 21
7.2586997026163118
 31
0.0
  0
LINE
  5
CC
100
AcDbEntity
  8
0
 62
256
370
-1
 48
1.0
  6
BYLAYER
100
AcDbLine
 10
71.4165481266488342
 20
3.3360396429525001
 30
0.0
 11
72.2649984564158103
 21
0.2664123474868205
 31
0.0
  0
ARC
  5
CD
100
AcDbEntity
  8
0
 62
256
370
-1
 48
1.0
  6
BYLAYER
100
AcDbCircle
 10
71.3011393063807617
 20
-0.0000000000004832
 30
0.0
 40
0.9999999999999964
100
AcDbArc
 50
344.5491083832988011
 51
15.4508916167006873
  0
LINE
  5
CE
100
AcDbEntity
  8
0
 62
256
370
-1
 48
1.0
  6
BYLAYER
100
AcDbLine
 10
72.2649984564158103
 20
-0.2664123474878011
 30
0.0
 11
71.41654812664882
 21
-3.3360396429534589
 31
0.0
  0
ARC
  5
CF
100
AcDbEntity
  8
0
 62
256
370
-1
 48
1.0
  6
BYLAYER
100
AcDbCircle
 10
70.4526889766137714
 20
-3.0696272954661552
 30
0.0
 40
1.000000000000002
100
AcDbArc
 50
238.0065006541780406
 51
344.5491083832990853
  0
LINE
  5
D0
100
AcDbEntity
  8
0
 62
256
370
-1
 48
1.0
  6
BYLAYER
100
AcDbLine
 10
69.9228659334784481
 20
-3.9177355096480682
 30
0.0
 11
65.0091949305046342
 21
-0.8481082141824032
 31
0.0
  0
ARC
  5
D1
100
AcDbEntity
  8
0
 62
256
370
-1
 48
1.0
  6
BYLAYER
100
AcDbCircle
 10
65.5390179736399574
 20
-0.0000000000005116
 30
0.0
 40
1.0000000000000011
100
AcDbArc
 50
121.9934993458223857
 51
238.0065006541776995
  0
LINE
  5
D2
100
AcDbEntity
  8
0
 62
256
370
-1
 48
1.0
  6
BYLAYER
100
AcDbLine
 10
65.0091949305046342
 20
0.8481082141814085
 30
0.0
 11
69.9228659334784481
 21
3.917735509647116
 31
0.0
  0
ARC
  5
D3
100
AcDbEntity
  8
0
 62
256
370
-1
 48
1.0
  6
BYLAYER
100
AcDbCircle
 10
70.4526889766137856
 20
3.069627295465196
 30
0.0
 40
0.9999999999999999
100
AcDbArc
 50
15.4508916167012007
 51
121.9934993458222863
  0
ARC
  5
D4
100
AcDbEntity
  8
0
 62
256
370
-1
 48
1.0
  6
BYLAYER
100
AcDbCircle
 10
30.7300289991258992
 20
-6.5544414196924086
 30
0.0
 40
1.000000000000008
100
AcDbArc
 50
261.0633898611148993
 51
15.9644464190642292
  0
LINE
  5
D5
100
AcDbEntity
  8
0
 62
256
370
-1
 48
1.0
  6
BYLAYER
100
AcDbLine
 10
30.5746873702427884
 20
-7.5423022288836137
 30
0.0
 11
24.0497589964295315
 21
-6.5162538296524417
 31
0.0
  0
ARC
  5
D6
100
AcDbEntity
  8
0
 62
256
370
-1
 48
1.0
  6
BYLAYER
100
AcDbCircle
 10
24.2051006253126602
 20
-5.5283930204612091
 30
0.0
 40
1.000000000000002
100
AcDbArc
 50
121.9934993458006147
 51
261.0633898611134782
  0
LINE
  5
D7
100
AcDbEntity
  8
0
 62
256
370
-1
 48
1.0
  6
BYLAYER
100
AcDbLine
 10
23.6752775821776602
 20
-4.6802848062791114
 30
0.0
 11
28.961890048815409
 21
-1.377676650725874
 31
0.0
  0
ARC
  5
D8
100
AcDbEntity
  8
0
 62
256
370
-1
 48
1.0
  6
BYLAYER
100
AcDbCircle
 10
29.4917130919504196
 20
-2.225784864907979
 30
0.0
 40
1.0000000000000051
100
AcDbArc
 50
15.9644464190649522
 51
121.9934993458005152
  0
LINE
  5
D9
100
AcDbEntity
  8
0
 62
256
370
-1
 48
1.0
  6
BYLAYER
100
AcDbLine
 10
30.4531456432438112
 20
-1.950744051003021
 30
0.0
 11
31.6914615504192909
 21
-6.2794006057874512
 31
0.0
  0
LINE
  5
DA
100
AcDbEntity
  8
0
 62
256
370
-1
 48
1.0
  6
BYLAYER
100
AcDbLine
 10
17.6499042801360986
 20
0.275040813904468
 30
0.0
 11
18.4089265853504607
 21
2.9282788589426758
 31
0.0
  0
ARC
  5
DB
100
AcDbEntity
  8
0
 62
256
370
-1
 48
1.0
  6
BYLAYER
100
AcDbCircle
 10
19.3703591366438417
 20
2.6532380450377531
 30
0.0
 40
1.0000000000000011
100
AcDbArc
 50
58.0065006541983834
 51
164.0355535809367211
  0
LINE
  5
DC
100
AcDbEntity
  8
0
 62
256
370
-1
 48
1.0
  6
BYLAYER
100
AcDbLine
 10
19.9001821797788701
 20
3.5013462592198441
 30
0.0
 11
24.1473228229312298
 21
0.8481082141816358
 31
0.0
  0
ARC
  5
DD
100
AcDbEntity
  8
0
 62
256
370
-1
 48
1.0
  6
BYLAYER
100
AcDbCircle
 10
23.6174997797962298
 20
-0.0000000000004832
 30
0.0
 40
1.0000000000000011
100
AcDbArc
 50
301.9934993458011263
 51
58.0065006541997477
  0
LINE
  5
DE
100
AcDbEntity
  8
0
 62
256
370
-1
 48
1.0
  6
BYLAYER
100
AcDbLine
 10
24.1473228229312404
 20
-0.8481082141825595
 30
0.0
 11
19.9001821797788487
 21
-3.501346259220782
 31
0.0
  0
ARC
  5
DF
100
AcDbEntity
  8
0
 62
256
370
-1
 48
1.0
  6
BYLAYER
100
AcDbCircle
 10
19.3703591366438488
 20
-2.6532380450386981
 30
0.0
 40
0.9999999999999865
100
AcDbArc
 50
195.9644464190631084
 51
301.9934993458002168
  0
LINE
  5
E0
100
AcDbEntity
  8
0
 62
256
370
-1
 48
1.0
  6
BYLAYER
100
AcDbLine
 10
18.4089265853504713
 20
-2.9282788589436142
 30
0.0
 11
17.6499042801360986
 21
-0.2750408139054059
 31
0.0
  0
ARC
  5
E1
100
AcDbEntity
  8
0
 62
256
370
-1
 48
1.0
  6
BYLAYER
100
AcDbCircle
 10
18.61133683142954
 20
-0.000000000000469
 30
0.0
 40
1.00000000000005
100
AcDbArc
 50
164.0355535809372043
 51
195.9644464190627957
  0
ARC
  5
E2
100
AcDbEntity
  8
0
 62
256
370
-1
 48
1.0
  6
BYLAYER
100
AcDbCircle
 10
47.4256184541126515
 20
-3.878757531714307
 30
0.0
 40
1.000000000000004
100
AcDbArc
 50
15.4608654082187424
 51
121.9934993458004158
  0
LINE
  5
E3
100
AcDbEntity
  8
0
 62
256
370
-1
 48
1.0
  6
BYLAYER
100
AcDbLine
 10
48.3894312136815472
 20
-3.6121774039999508
 30
0.0
 11
49.3980196251001331
 21
-7.2586997026170366
 31
0.0
  0
ARC
  5
E4
100
AcDbEntity
  8
0
 62
256
370
-1
 48
1.0
  6
BYLAYER
100
AcDbCircle
 10
48.5305881414881384
 20
-7.4986218175599291
 30
0.0
 40
0.8999999999999998
100
AcDbArc
 50
269.1361550410185828
 51
15.4608654082182326
  0
ELLIPSE
  5
E5
100
AcDbEntity
  8
0
 62
256
370
-1
 48
1.0
  6
BYLAYER
100
AcDbEllipse
 10
62.0590002161444829
 20
-0.0000000000004832
 30
0.0
 11
87.8993273841497853
 21
-0.0000000000008803
 31
0.0
 40
0.096701536324698
 41
4.477847847002991
 42
4.5577105326460146
  0
ARC
  5
E6
100
AcDbEntity
  8
0
 62
256
370
-1
 48
1.0
  6
BYLAYER
100
AcDbCircle
 10
41.6522801937672327
 20
-7.3675194569804603
 30
0.0
 40
0.900000000000002
100
AcDbArc
 50
121.9934993458009842
 51
268.6760836931010772
  0
LINE
  5
E7
100
AcDbEntity
  8
0
 62
256
370
-1
 48
1.0
  6
BYLAYER
100
AcDbLine
 10
41.1754394549457174
 20
-6.6042220642165654
 30
0.0
 11
46.895795410977648
 21
-3.030649317532216
 31
0.0
  0
LINE
  5
E8
100
AcDbEntity
  8
0
 62
256
370
-1
 48
1.0
  6
BYLAYER
100
AcDbLine
 10
118.5840002325172975
 20
14.2499999999995595
 30
0.0
 11
118.5840002325172975
 21
16.249999999999531
 31
0.0
  0
LINE
  5
E9
100
AcDbEntity
  8
0
 62
256
370
-1
 48
1.0
  6
BYLAYER
100
AcDbLine
 10
97.7340002325172748
 20
14.2499999999995133
 30
0.0
 11
97.7340002325172748
 21
16.2499999999994849
 31
0.0
  0
LINE
  5
EA
100
AcDbEntity
  8
0
 62
256
370
-1
 48
1.0
  6
BYLAYER
100
AcDbLine
 10
118.5840002325172975
 20
-14.2499999999995506
 30
0.0
 11
118.5840002325172975
 21
-16.2499999999995524
 31
0.0
  0
LINE
  5
EB
100
AcDbEntity
  8
0
 62
256
370
-1
 48
1.0
  6
BYLAYER
100
AcDbLine
 10
97.7340002325172748
 20
-14.2499999999995062
 30
0.0
 11
97.7340002325172748
 21
-16.2499999999994884
 31
0.0
  0
LINE
  5
EC
100
AcDbEntity
  8
0
 62
256
370
-1
 48
1.0
  6
BYLAYER
100
AcDbLine
 10
122.5840002325172975
 20
14.2499999999995595
 30
0.0
 11
120.5840002325172975
 21
14.2499999999995008
 31
0.0
  0
LINE
  5
ED
100
AcDbEntity
  8
0
 62
256
370
-1
 48
1.0
  6
BYLAYER
100
AcDbLine
 10
101.7340002325172748
 20
14.2499999999995133
 30
0.0
 11
99.7340002325172748
 21
14.2499999999994547
 31
0.0
  0
LINE
  5
EE
100
AcDbEntity
  8
0
 62
256
370
-1
 48
1.0
  6
BYLAYER
100
AcDbLine
 10
122.5840002325172975
 20
-14.2499999999995488
 30
0.0
 11
120.5840002325172975
 21
-14.2499999999995026
 31
0.0
  0
LINE
  5
EF
100
AcDbEntity
  8
0
 62
256
370
-1
 48
1.0
  6
BYLAYER
100
AcDbLine
 10
101.7340002325172748
 20
-14.2499999999995168
 30
0.0
 11
99.7340002325172748
 21
-14.2499999999994618
 31
0.0
  0
LINE
  5
F0
100
AcDbEntity
  8
0
 62
256
370
-1
 48
1.0
  6
BYLAYER
100
AcDbLine
 10
124.5840002325172975
 20
16.2499999999995204
 30
0.0
 11
124.5840002325172975
 21
14.2499999999995204
 31
0.0
  0
LINE
  5
F1
100
AcDbEntity
  8
0
 62
256
370
-1
 48
1.0
  6
BYLAYER
100
AcDbLine
 10
124.5840002325172975
 20
-16.2499999999995381
 30
0.0
 11
124.5840002325172975
 21
-14.2499999999995204
 31
0.0
  0
LINE
  5
F2
100
AcDbEntity
  8
0
 62
256
370
-1
 48
1.0
  6
BYLAYER
100
AcDbLine
 10
120.5840002325172975
 20
16.2499999999995133
 30
0.0
 11
122.5840002325172975
 21
16.2499999999995453
 31
0.0
  0
LINE
  5
F3
100
AcDbEntity
  8
0
 62
256
370
-1
 48
1.0
  6
BYLAYER
100
AcDbLine
 10
99.7340002325172748
 20
16.2499999999994671
 30
0.0
 11
101.7340002325172748
 21
16.2499999999994991
 31
0.0
  0
LINE
  5
F4
100
AcDbEntity
  8
0
 62
256
370
-1
 48
1.0
  6
BYLAYER
100
AcDbLine
 10
120.5840002325172975
 20
-16.2499999999995026
 30
0.0
 11
122.5840002325172975
 21
-16.2499999999995275
 31
0.0
  0
LINE
  5
F5
100
AcDbEntity
  8
0
 62
256
370
-1
 48
1.0
  6
BYLAYER
100
AcDbLine
 10
99.7340002325172748
 20
-16.24999999999946
 30
0.0
 11
101.7340002325172748
 21
-16.2499999999995026
 31
0.0
  0
ARC
  5
F6
100
AcDbEntity
  8
0
 62
256
370
-1
 48
1.0
  6
BYLAYER
100
AcDbCircle
 10
-11.0009997838555602
 20
12.5072745006934092
 30
0.0
 40
1.4999999999999589
100
AcDbArc
 50
179.9999999999988916
 51
228.6041021556287092
  0
ARC
  5
F7
100
AcDbEntity
  8
0
 62
256
370
-1
 48
1.0
  6
BYLAYER
100
AcDbCircle
 10
-12.9847742596105498
 20
10.2567992554745508
 30
0.0
 40
1.5000000000000311
100
AcDbArc
 50
339.9999999999994316
 51
48.6041021556264496
  0
LINE
  5
F8
100
AcDbEntity
  8
0
 62
256
370
-1
 48
1.0
  6
BYLAYER
100
AcDbLine
 10
-11.5752353284316598
 20
9.7437690404860149
 30
0.0
 11
-12.1813706740207799
 21
8.0784258653466878
 31
0.0
  0
ARC
  5
F9
100
AcDbEntity
  8
0
 62
256
370
-1
 48
1.0
  6
BYLAYER
100
AcDbCircle
 10
-7.2009997838556794
 20
6.2657191057205486
 30
0.0
 40
5.2999999999998364
100
AcDbArc
 50
159.9999999999982947
 51
180.0000000000003126
  0
LINE
  5
FA
100
AcDbEntity
  8
0
 62
256
370
-1
 48
1.0
  6
BYLAYER
100
AcDbLine
 10
-12.5009997838554998
 20
6.2657191057205353
 30
0.0
 11
-12.5009997838555194
 21
6.249999999999531
 31
0.0
  0
ARC
  5
FB
100
AcDbEntity
  8
0
 62
256
370
-1
 48
1.0
  6
BYLAYER
100
AcDbCircle
 10
-9.5009997838555034
 20
6.2499999999995453
 30
0.0
 40
3.000000000000016
100
AcDbArc
 50
180.000000000000199
 51
270.0
  0
LINE
  5
FC
100
AcDbEntity
  8
0
 62
256
370
-1
 48
1.0
  6
BYLAYER
100
AcDbLine
 10
-9.5009997838555051
 20
3.249999999999531
 30
0.0
 11
-3.2499999999996021
 21
3.2499999999996021
 31
0.0
  0
ARC
  5
FD
100
AcDbEntity
  8
0
 62
256
370
-1
 48
1.0
  6
BYLAYER
100
AcDbCircle
 10
-3.2499999999996021
 20
0.0
 30
0.0
 40
3.2499999999996021
100
AcDbArc
 50
270.0
 51
90.0
  0
LINE
  5
FE
100
AcDbEntity
  8
0
 62
256
370
-1
 48
1.0
  6
BYLAYER
100
AcDbLine
 10
-3.249999999999603
 20
-3.2499999999996021
 30
0.0
 11
-9.5009997838555194
 21
-3.2500000000004619
 31
0.0
  0
ARC
  5
FF
100
AcDbEntity
  8
0
 62
256
370
-1
 48
1.0
  6
BYLAYER
100
AcDbCircle
 10
-9.5009997838555194
 20
-6.250000000000469
 30
0.0
 40
3.0000000000000089
100
AcDbArc
 50
90.0
 51
179.999999999999801
  0
LINE
  5
100
100
AcDbEntity
  8
0
 62
256
370
-1
 48
1.0
  6
BYLAYER
100
AcDbLine
 10
-12.5009997838555194
 20
-6.2500000000004619
 30
0.0
 11
-12.5009997838555194
 21
-6.2657191057214163
 31
0.0
  0
ARC
  5
101
100
AcDbEntity
  8
0
 62
256
370
-1
 48
1.0
  6
BYLAYER
100
AcDbCircle
 10
-7.2009997838552522
 20
-6.2657191057213586
 30
0.0
 40
5.3000000000002689
100
AcDbArc
 50
180.0000000000005969
 51
200.0000000000007958
  0
LINE
  5
102
100
AcDbEntity
  8
0
 62
256
370
-1
 48
1.0
  6
BYLAYER
100
AcDbLine
 10
-12.1813706740207994
 20
-8.0784258653475689
 30
0.0
 11
-11.5752353284316296
 21
-9.7437690404869528
 31
0.0
  0
ARC
  5
103
100
AcDbEntity
  8
0
 62
256
370
-1
 48
1.0
  6
BYLAYER
100
AcDbCircle
 10
-12.9847742596105
 20
-10.2567992554754905
 30
0.0
 40
1.4999999999999989
100
AcDbArc
 50
311.3958978443719161
 51
20.0000000000008917
  0
ARC
  5
104
100
AcDbEntity
  8
0
 62
256
370
-1
 48
1.0
  6
BYLAYER
100
AcDbCircle
 10
-11.0009997838554803
 20
-12.5072745006943897
 30
0.0
 40
1.500000000000036
100
AcDbArc
 50
131.3958978443727972
 51
179.9999999999992895
  0
LINE
  5
105
100
AcDbEntity
  8
0
 62
256
370
-1
 48
1.0
  6
BYLAYER
100
AcDbLine
 10
-12.5009997838555194
 20
-12.5072745006943808
 30
0.0
 11
-12.5009997838555105
 21
-15.2500000000004707
 31
0.0
  0
ARC
  5
106
100
AcDbEntity
  8
0
 62
256
370
-1
 48
1.0
  6
BYLAYER
100
AcDbCircle
 10
-8.5009997838555194
 20
-15.2500000000004707
 30
0.0
 40
3.9999999999999951
100
AcDbArc
 50
180.0
 51
270.0
  0
LINE
  5
107
100
AcDbEntity
  8
0
 62
256
370
-1
 48
1.0
  6
BYLAYER
100
AcDbLine
 10
-8.50099978385553
 20
-19.2500000000004583
 30
0.0
 11
132.0090002161445
 21
-19.2500000000004796
 31
0.0
  0
ARC
  5
108
100
AcDbEntity
  8
0
 62
256
370
-1
 48
1.0
  6
BYLAYER
100
AcDbCircle
 10
132.0090002161445
 20
-15.2500000000005702
 30
0.0
 40
3.999999999999988
100
AcDbArc
 50
270.0
 51
85.0000000000004974
  0
LINE
  5
109
100
AcDbEntity
  8
0
 62
256
370
-1
 48
1.0
  6
BYLAYER
100
AcDbLine
 10
132.3576231871350899
 20
-11.2652212076334699
 30
0.0
 11
116.3336537437471065
 21
-9.863305536651211
 31
0.0
  0
ARC
  5
10A
100
AcDbEntity
  8
0
 62
256
370
-1
 48
1.0
  6
BYLAYER
100
AcDbCircle
 10
116.6822767147377959
 20
-5.8785267442833913
 30
0.0
 40
4.0000000000008784
100
AcDbArc
 50
201.3763710659861772
 51
265.0000000000002274
  0
ARC
  5
10B
100
AcDbEntity
  8
0
 62
256
370
-1
 48
1.0
  6
BYLAYER
100
AcDbCircle
 10
142.0090002161446137
 20
-0.0000000000004263
 30
0.0
 40
30.0000000000000888
100
AcDbArc
 50
178.4083386548922192
 51
181.5916613451063881
  0
ARC
  5
10C
100
AcDbEntity
  8
0
 62
256
370
-1
 48
1.0
  6
BYLAYER
100
AcDbCircle
 10
109.2326270119110205
 20
8.7944690114066137
 30
0.0
 40
4.0000000000008624
100
AcDbArc
 50
299.9165188894644416
 51
338.6236289340077974
  0
ARC
  5
10D
100
AcDbEntity
  8
0
 62
256
370
-1
 48
1.0
  6
BYLAYER
100
AcDbCircle
 10
116.6822767147377959
 20
5.8785267442824818
 30
0.0
 40
4.0000000000008624
100
AcDbArc
 50
94.9999999999994031
 51
158.6236289340077121
  0
ARC
  5
10E
100
AcDbEntity
  8
0
 62
256
370
-1
 48
1.0
  6
BYLAYER
100
AcDbCircle
 10
109.2326270119110205
 20
-8.7944690114066137
 30
0.0
 40
4.0000000000008624
100
AcDbArc
 50
21.3763710659922168
 51
60.0834811105356081
  0
LINE
  5
10F
100
AcDbEntity
  8
0
 62
256
370
-1
 48
1.0
  6
BYLAYER
100
AcDbLine
 10
116.3336537437471065
 20
9.8633055366503015
 30
0.0
 11
132.3576231871350899
 21
11.2652212076325604
 31
0.0
  0
ARC
  5
110
100
AcDbEntity
  8
0
 62
256
370
-1
 48
1.0
  6
BYLAYER
100
AcDbCircle
 10
132.0090002161445
 20
15.2499999999995293
 30
0.0
 40
3.9999999999999991
100
AcDbArc
 50
275.0
 51
90.0
  0
LINE
  5
111
100
AcDbEntity
  8
0
 62
256
370
-1
 48
1.0
  6
BYLAYER
100
AcDbLine
 10
132.0090002161445
 20
19.2499999999995595
 30
0.0
 11
-8.5009997838555265
 21
19.2499999999995488
 31
0.0
  0
ARC
  5
112
100
AcDbEntity
  8
0
 62
256
370
-1
 48
1.0
  6
BYLAYER
100
AcDbCircle
 10
-8.5009997838555211
 20
15.2499999999995293
 30
0.0
 40
4.0000000000000053
100
AcDbArc
 50
90.0
 51
179.9999999999998863
  0
LINE
  5
113
100
AcDbEntity
  8
0
 62
256
370
-1
 48
1.0
  6
BYLAYER
100
AcDbLine
 10
-12.5009997838555194
 20
15.2499999999995506
 30
0.0
 11
-12.5009997838555194
 21
12.5072745006934394
 31
0.0
  0
CIRCLE
  5
114
100
AcDbEntity
  8
0
 62
256
370
-1
 48
1.0
  6
BYLAYER
100
AcDbCircle
 10
-8.5009997838555211
 20
15.249999999999531
 30
0.0
 40
1.75
  0
CIRCLE
  5
115
100
AcDbEntity
  8
0
 62
256
370
-1
 48
1.0
  6
BYLAYER
100
AcDbCircle
 10
33.8090001833989078
 20
15.2499999999995595
 30
0.0
 40
1.75
  0
CIRCLE
  5
116
100
AcDbEntity
  8
0
 62
256
370
-1
 48
1.0
  6
BYLAYER
100
AcDbCircle
 10
90.3090002488900438
 20
15.2499999999995524
 30
0.0
 40
1.75
  0
CIRCLE
  5
117
100
AcDbEntity
  8
0
 62
256
370
-1
 48
1.0
  6
BYLAYER
100
AcDbCircle
 10
132.0090002161445
 20
15.249999999999531
 30
0.0
 40
1.75
  0
CIRCLE
  5
118
100
AcDbEntity
  8
0
 62
256
370
-1
 48
1.0
  6
BYLAYER
100
AcDbCircle
 10
132.0090002161445
 20
-15.2500000000005684
 30
0.0
 40
1.75
  0
CIRCLE
  5
119
100
AcDbEntity
  8
0
 62
256
370
-1
 48
1.0
  6
BYLAYER
100
AcDbCircle
 10
90.3090002488900296
 20
-15.2500000000005294
 30
0.0
 40
1.75
  0
CIRCLE
  5
11A
100
AcDbEntity
  8
0
 62
256
370
-1
 48
1.0
  6
BYLAYER
100
AcDbCircle
 10
33.809000183398922
 20
-15.2500000000004619
 30
0.0
 40
1.75
  0
CIRCLE
  5
11B
100
AcDbEntity
  8
0
 62
256
370
-1
 48
1.0
  6
BYLAYER
100
AcDbCircle
 10
-8.5009997838555194
 20
-15.250000000000469
 30
0.0
 40
1.75
  0
ARC
  5
11C
100
AcDbEntity
  8
0
 62
256
370
-1
 48
1.0
  6
BYLAYER
100
AcDbCircle
 10
119.5840002325172975
 20
16.2499999999995914
 30
0.0
 40
1.0
100
AcDbArc
 50
0.0
 51
180.0
  0
ARC
  5
11D
100
AcDbEntity
  8
0
 62
256
370
-1
 48
1.0
  6
BYLAYER
100
AcDbCircle
 10
98.7340002325172748
 20
16.2499999999995453
 30
0.0
 40
1.0
100
AcDbArc
 50
0.0
 51
180.0
  0
ARC
  5
11E
100
AcDbEntity
  8
0
 62
256
370
-1
 48
1.0
  6
BYLAYER
100
AcDbCircle
 10
119.5840002325172975
 20
-16.2499999999995737
 30
0.0
 40
1.0
100
AcDbArc
 50
180.0
 51
0.0
  0
ARC
  5
11F
100
AcDbEntity
  8
0
 62
256
370
-1
 48
1.0
  6
BYLAYER
100
AcDbCircle
 10
98.7340002325172748
 20
-16.2499999999995488
 30
0.0
 40
1.0
100
AcDbArc
 50
180.0
 51
0.0
  0
ARC
  5
120
100
AcDbEntity
  8
0
 62
256
370
-1
 48
1.0
  6
BYLAYER
100
AcDbCircle
 10
119.5840002325172975
 20
14.2499999999995204
 30
0.0
 40
1.0
100
AcDbArc
 50
180.0
 51
0.0
  0
ARC
  5
121
100
AcDbEntity
  8
0
 62
256
370
-1
 48
1.0
  6
BYLAYER
100
AcDbCircle
 10
98.7340002325172748
 20
14.2499999999994742
 30
0.0
 40
1.0
100
AcDbArc
 50
180.0
 51
0.0
  0
ARC
  5
122
100
AcDbEntity
  8
0
 62
256
370
-1
 48
1.0
  6
BYLAYER
100
AcDbCircle
 10
98.7340002325172748
 20
-14.2499999999994689
 30
0.0
 40
1.0
100
AcDbArc
 50
0.0
 51
180.0
  0
ARC
  5
123
100
AcDbEntity
  8
0
 62
256
370
-1
 48
1.0
  6
BYLAYER
100
AcDbCircle
 10
119.5840002325172975
 20
-14.2499999999995293
 30
0.0
 40
1.0
100
AcDbArc
 50
0.0
 51
180.0
  0
ARC
  5
124
100
AcDbEntity
  8
0
 62
256
370
-1
 48
1.0
  6
BYLAYER
100
AcDbCircle
 10
123.5840002325172975
 20
16.2499999999995204
 30
0.0
 40
1.0
100
AcDbArc
 50
0.0
 51
180.0
  0
ARC
  5
125
100
AcDbEntity
  8
0
 62
256
370
-1
 48
1.0
  6
BYLAYER
100
AcDbCircle
 10
102.7340002325172748
 20
16.2499999999994742
 30
0.0
 40
1.0
100
AcDbArc
 50
0.0
 51
180.0
  0
ARC
  5
126
100
AcDbEntity
  8
0
 62
256
370
-1
 48
1.0
  6
BYLAYER
100
AcDbCircle
 10
102.7340002325172748
 20
-16.2499999999994742
 30
0.0
 40
1.0
100
AcDbArc
 50
180.0
 51
0.0
  0
ARC
  5
127
100
AcDbEntity
  8
0
 62
256
370
-1
 48
1.0
  6
BYLAYER
100
AcDbCircle
 10
123.5840002325172975
 20
-16.2499999999995168
 30
0.0
 40
1.0
100
AcDbArc
 50
180.0
 51
0.0
  0
ARC
  5
128
100
AcDbEntity
  8
0
 62
256
370
-1
 48
1.0
  6
BYLAYER
100
AcDbCircle
 10
123.5840002325172975
 20
14.2499999999995293
 30
0.0
 40
1.0
100
AcDbArc
 50
180.0
 51
0.0
  0
ARC
  5
129
100
AcDbEntity
  8
0
 62
256
370
-1
 48
1.0
  6
BYLAYER
100
AcDbCircle
 10
102.7340002325172748
 20
14.2499999999994831
 30
0.0
 40
1.0
100
AcDbArc
 50
180.0
 51
0.0
  0
ARC
  5
12A
100
AcDbEntity
  8
0
 62
256
370
-1
 48
1.0
  6
BYLAYER
100
AcDbCircle
 10
102.7340002325172748
 20
-14.2499999999994813
 30
0.0
 40
1.0
100
AcDbArc
 50
0.0
 51
180.0
  0
ARC
  5
12B
100
AcDbEntity
  8
0
 62
256
370
-1
 48
1.0
  6
BYLAYER
100
AcDbCircle
 10
123.5840002325172975
 20
-14.2499999999995044
 30
0.0
 40
1.0
100
AcDbArc
 50
0.0
 51
180.0
  0
LINE
  5
12C
100
AcDbEntity
  8
0
 62
256
370
-1
 48
1.0
  6
BYLAYER
100
AcDbLine
 10
-8.4857141932178966
 20
-6.5369409957622091
 30
0.0
 11
-7.8016739065665774
 21
-8.4163262373340313
 31
0.0
  0
LINE
  5
12D
100
AcDbEntity
  8
0
 62
256
370
-1
 48
1.0
  6
BYLAYER
100
AcDbLine
 10
-8.4857141932178966
 20
6.5369409957622118
 30
0.0
 11
-7.8016739065665845
 21
8.4163262373340419
 31
0.0
  0
LINE
  5
12E
100
AcDbEntity
  8
0
 62
256
370
-1
 48
1.0
  6
BYLAYER
100
AcDbLine
 10
-10.3650994347897196
 20
-7.2209812824135255
 30
0.0
 11
-9.6810591481384023
 21
-9.1003665239853486
 31
0.0
  0
LINE
  5
12F
100
AcDbEntity
  8
0
 62
256
370
-1
 48
1.0
  6
BYLAYER
100
AcDbLine
 10
-10.3650994347897232
 20
7.2209812824135327
 30
0.0
 11
-9.6810591481384041
 21
9.1003665239853486
 31
0.0
  0
ARC
  5
130
100
AcDbEntity
  8
0
 62
256
370
-1
 48
1.0
  6
BYLAYER
100
AcDbCircle
 10
-8.7413665273524899
 20
-8.7583463806596882
 30
0.0
 40
1.0
100
AcDbArc
 50
199.99999999999946
 51
19.9999999999994706
  0
ARC
  5
131
100
AcDbEntity
  8
0
 62
256
370
-1
 48
1.0
  6
BYLAYER
100
AcDbCircle
 10
-8.7413665273524952
 20
8.7583463806596935
 30
0.0
 40
1.0
100
AcDbArc
 50
340.0000000000005684
 51
160.0000000000005969
  0
ARC
  5
132
100
AcDbEntity
  8
0
 62
256
370
-1
 48
1.0
  6
BYLAYER
100
AcDbCircle
 10
-9.425406814003809
 20
-6.878961139087866
 30
0.0
 40
1.0
100
AcDbArc
 50
19.9999999999994351
 51
199.9999999999994031
  0
ARC
  5
133
100
AcDbEntity
  8
0
 62
256
370
-1
 48
1.0
  6
BYLAYER
100
AcDbCircle
 10
-9.4254068140038108
 20
6.8789611390878687
 30
0.0
 40
1.0
100
AcDbArc
 50
160.0000000000005969
 51
340.0000000000005684
  0
ARC
  5
134
100
AcDbEntity
  8
0
 62
256
370
-1
 48
1.0
  6
BYLAYER
100
AcDbCircle
 10
5.5090001997716911
 20
2.899999999999558
 30
0.0
 40
1.0
100
AcDbArc
 50
90.0
 51
270.0
  0
ARC
  5
135
100
AcDbEntity
  8
0
 62
256
370
-1
 48
1.0
  6
BYLAYER
100
AcDbCircle
 10
5.5090001997716911
 20
-2.8999999999995594
 30
0.0
 40
1.0
100
AcDbArc
 50
125.9421118713782306
 51
270.0
  0
ARC
  5
136
100
AcDbEntity
  8
0
 62
256
370
-1
 48
1.0
  6
BYLAYER
100
AcDbCircle
 10
13.5090001997716911
 20
-2.8999999999995598
 30
0.0
 40
1.0
100
AcDbArc
 50
270.0
 51
90.0
  0
ARC
  5
137
100
AcDbEntity
  8
0
 62
256
370
-1
 48
1.0
  6
BYLAYER
100
AcDbCircle
 10
13.5090001997716911
 20
2.899999999999558
 30
0.0
 40
1.0
100
AcDbArc
 50
305.9421118713781311
 51
90.0
  0
LINE
  5
138
100
AcDbEntity
  8
0
 62
256
370
-1
 48
1.0
  6
BYLAYER
100
AcDbLine
 10
5.5090001997716911
 20
3.899999999999558
 30
0.0
 11
13.5090001997716911
 21
3.899999999999558
 31
0.0
  0
LINE
  5
139
100
AcDbEntity
  8
0
 62
256
370
-1
 48
1.0
  6
BYLAYER
100
AcDbLine
 10
13.5090001997716911
 20
-3.8999999999995598
 30
0.0
 11
5.5090001997716911
 21
-3.899999999999558
 31
0.0
  0
ARC
  5
13A
100
AcDbEntity
  8
0
 62
256
370
-1
 48
1.0
  6
BYLAYER
100
AcDbCircle
 10
142.0090002161446137
 20
-0.0000000000004263
 30
0.0
 40
32.0000000000000853
100
AcDbArc
 50
173.1195340193277161
 51
174.7111953644352695
  0
ARC
  5
13B
100
AcDbEntity
  8
0
 62
256
370
-1
 48
1.0
  6
BYLAYER
100
AcDbCircle
 10
142.0090002161446137
 20
0.0000000000000081
 30
0.0
 40
32.0000000000000853
100
AcDbArc
 50
185.2888046355647305
 51
186.8804659806722839
  0
ARC
  5
13C
100
AcDbEntity
  8
0
 62
256
370
-1
 48
1.0
  6
BYLAYER
100
AcDbCircle
 10
112.2250529309680047
 20
3.5939510449953591
 30
0.0
 40
2.0
100
AcDbArc
 50
119.9165188894645127
 51
173.1195340193276593
  0
ARC
  5
13D
100
AcDbEntity
  8
0
 62
256
370
-1
 48
1.0
  6
BYLAYER
100
AcDbCircle
 10
112.2250529309680047
 20
-3.5939510449953582
 30
0.0
 40
2.0
100
AcDbArc
 50
186.8804659806723691
 51
240.0834811105354731
  0
LINE
  5
13E
100
AcDbEntity
  8
0
 62
256
370
-1
 48
1.0
  6
BYLAYER
100
AcDbLine
 10
111.0809683265653831
 20
1.8592588408218109
 30
0.0
 11
111.0809683265653831
 21
1.8592588408218114
 31
0.0
  0
LINE
  5
13F
100
AcDbEntity
  8
0
 62
256
370
-1
 48
1.0
  6
BYLAYER
100
AcDbLine
 10
111.0809683265653831
 20
-1.8592588408218109
 30
0.0
 11
111.0809683265653831
 21
-1.8592588408218118
 31
0.0
  0
ARC
  5
140
100
AcDbEntity
  8
0
 62
256
370
-1
 48
1.0
  6
BYLAYER
100
AcDbCircle
 10
111.1409756476219997
 20
2.8574567778160773
 30
0.0
 40
1.0
100
AcDbArc
 50
174.7111953644352695
 51
266.5597670096635738
  0
ARC
  5
141
100
AcDbEntity
  8
0
 62
256
370
-1
 48
1.0
  6
BYLAYER
100
AcDbCircle
 10
111.1409756476219997
 20
-2.8574567778160778
 30
0.0
 40
1.0
100
AcDbArc
 50
93.4402329903364404
 51
185.2888046355647305
  0
ARC
  5
142
100
AcDbEntity
  8
0
 62
256
370
-1
 48
1.0
  6
BYLAYER
100
AcDbCircle
 10
111.0209610055087666
 20
0.8610609038275445
 30
0.0
 40
1.0
100
AcDbArc
 50
358.408338654892475
 51
86.5597670096635738
  0
ARC
  5
143
100
AcDbEntity
  8
0
 62
256
370
-1
 48
1.0
  6
BYLAYER
100
AcDbCircle
 10
111.0209610055087666
 20
-0.8610609038275445
 30
0.0
 40
1.0
100
AcDbArc
 50
273.4402329903364262
 51
1.5916613451075488
  0
LINE
  5
144
100
AcDbEntity
  8
0
 62
256
370
-1
 48
1.0
  6
BYLAYER
100
AcDbLine
 10
8.5919821759149162
 20
-1.8999999999995596
 30
0.0
 11
13.5090001997716911
 21
-1.8999999999995598
 31
0.0
  0
LINE
  5
145
100
AcDbEntity
  8
0
 62
256
370
-1
 48
1.0
  6
BYLAYER
100
AcDbLine
 10
5.5090001997716911
 20
1.899999999999558
 30
0.0
 11
10.426018223628466
 21
1.899999999999558
 31
0.0
  0
LINE
  5
146
100
AcDbEntity
  8
0
 62
256
370
-1
 48
1.0
  6
BYLAYER
100
AcDbLine
 10
10.426018223628466
 20
1.899999999999558
 30
0.0
 11
4.9220326283108182
 21
-2.0903895566051292
 31
0.0
  0
LINE
  5
147
100
AcDbEntity
  8
0
 62
256
370
-1
 48
1.0
  6
BYLAYER
100
AcDbLine
 10
8.5919821759149144
 20
-1.8999999999995603
 30
0.0
 11
14.0959677712325639
 21
2.0903895566051283
 31
0.0
  0
ENDSEC
  0
SECTION
  2
OBJECTS
  0
DICTIONARY
  5
C
100
AcDbDictionary
280
0
281
1
  3
ACAD_GROUP
350
D
  3
ACAD_LAYOUT
350
1A
  3
ACAD_MLINESTYLE
350
17
  3
ACAD_PLOTSETTINGS
350
19
  3
ACAD_PLOTSTYLENAME
350
E
  3
AcDbVariableDictionary
350
148
  3
QCAD_OBJECTS
350
149
  0
DICTIONARY
  5
D
100
AcDbDictionary
280
0
281
1
  0
ACDBDICTIONARYWDFLT
  5
E
100
AcDbDictionary
281
1
  3
Normal
350
F
100
AcDbDictionaryWithDefault
340
F
  0
ACDBPLACEHOLDER
  5
F
  0
DICTIONARY
  5
17
100
AcDbDictionary
280
0
281
1
  3
Standard
350
18
  0
MLINESTYLE
  5
18
100
AcDbMlineStyle
  2
STANDARD
 70
0
  3

 62
256
 51
90.0
 52
90.0
 71
2
 49
0.5
 62
256
  6
BYLAYER
 49
-0.5
 62
256
  6
BYLAYER
  0
DICTIONARY
  5
19
100
AcDbDictionary
280
0
281
1
  0
DICTIONARY
  5
1A
100
AcDbDictionary
281
1
  3
Layout1
350
1E
  3
Layout2
350
26
  3
Model
350
22
  0
LAYOUT
  5
1E
100
AcDbPlotSettings
  1

  2
none_device
  4

  6

 40
0.0
 41
0.0
 42
0.0
 43
0.0
 44
0.0
 45
0.0
 46
0.0
 47
0.0
 48
0.0
 49
0.0
140
0.0
141
0.0
142
1.0
143
1.0
 70
688
 72
0
 73
0
 74
5
  7

 75
16
147
1.0
148
0.0
149
0.0
100
AcDbLayout
  1
Layout1
 70
1
 71
1
 10
0.0
 20
0.0
 11
420.0
 21
297.0
 12
0.0
 22
0.0
 32
0.0
 14
100000000000000000000.0
 24
100000000000000000000.0
 34
100000000000000000000.0
 15
-100000000000000000000.0
 25
-100000000000000000000.0
 35
-100000000000000000000.0
146
0.0
 13
0.0
 23
0.0
 33
0.0
 16
1.0
 26
0.0
 36
0.0
 17
0.0
 27
1.0
 37
0.0
 76
0
330
1B
  0
LAYOUT
  5
22
100
AcDbPlotSettings
  1

  2
none_device
  4

  6

 40
0.0
 41
0.0
 42
0.0
 43
0.0
 44
0.0
 45
0.0
 46
0.0
 47
0.0
 48
0.0
 49
0.0
140
0.0
141
0.0
142
1.0
143
1.0
 70
1712
 72
0
 73
0
 74
0
  7

 75
0
147
1.0
148
0.0
149
0.0
100
AcDbLayout
  1
Model
 70
1
 71
0
 10
0.0
 20
0.0
 11
12.0
 21
9.0
 12
0.0
 22
0.0
 32
0.0
 14
0.0
 24
0.0
 34
0.0
 15
0.0
 25
0.0
 35
0.0
146
0.0
 13
0.0
 23
0.0
 33
0.0
 16
1.0
 26
0.0
 36
0.0
 17
0.0
 27
1.0
 37
0.0
 76
0
330
1F
  0
LAYOUT
  5
26
100
AcDbPlotSettings
  1

  2
none_device
  4

  6

 40
0.0
 41
0.0
 42
0.0
 43
0.0
 44
0.0
 45
0.0
 46
0.0
 47
0.0
 48
0.0
 49
0.0
140
0.0
141
0.0
142
1.0
143
1.0
 70
688
 72
0
 73
0
 74
5
  7

 75
16
147
1.0
148
0.0
149
0.0
100
AcDbLayout
  1
Layout2
 70
1
 71
2
 10
0.0
 20
0.0
 11
12.0
 21
9.0
 12
0.0
 22
0.0
 32
0.0
 14
0.0
 24
0.0
 34
0.0
 15
0.0
 25
0.0
 35
0.0
146
0.0
 13
0.0
 23
0.0
 33
0.0
 16
1.0
 26
0.0
 36
0.0
 17
0.0
 27
1.0
 37
0.0
 76
0
330
23
  0
DICTIONARY
  5
148
100
AcDbDictionary
281
1
  3
DIMASSOC
350
14B
  3
HIDETEXT
350
14A
  0
DICTIONARYVAR
  5
14A
100
DictionaryVariables
280
0
  1
2
  0
DICTIONARYVAR
  5
14B
100
DictionaryVariables
280
0
  1
1
  0
DICTIONARY
  5
149
100
AcDbDictionary
281
1
  3
ColorSettings/BackgroundColor
350
14C
  3
ColorSettings/ColorMode
350
14D
  3
Grid/DisplayGrid00
350
14E
  3
Grid/DisplayGrid01
350
14F
  3
Grid/DisplayGrid02
350
150
  3
Grid/DisplayGrid03
350
151
  3
Grid/GridSpacingX00
350
152
  3
Grid/GridSpacingX01
350
153
  3
Grid/GridSpacingX02
350
154
  3
Grid/GridSpacingX03
350
155
  3
Grid/GridSpacingY00
350
156
  3
Grid/GridSpacingY01
350
157
  3
Grid/GridSpacingY02
350
158
  3
Grid/GridSpacingY03
350
159
  3
Grid/IsometricGrid00
350
15A
  3
Grid/IsometricGrid01
350
15B
  3
Grid/IsometricGrid02
350
15C
  3
Grid/IsometricGrid03
350
15D
  3
Grid/IsometricProjection00
350
15E
  3
Grid/IsometricProjection01
350
15F
  3
Grid/IsometricProjection02
350
160
  3
Grid/IsometricProjection03
350
161
  3
Grid/MetaGridSpacingX00
350
162
  3
Grid/MetaGridSpacingX01
350
163
  3
Grid/MetaGridSpacingX02
350
164
  3
Grid/MetaGridSpacingX03
350
165
  3
Grid/MetaGridSpacingY00
350
166
  3
Grid/MetaGridSpacingY01
350
167
  3
Grid/MetaGridSpacingY02
350
168
  3
Grid/MetaGridSpacingY03
350
169
  3
MultiPageSettings/Columns
350
16A
  3
MultiPageSettings/GlueMarginsBottom
350
16B
  3
MultiPageSettings/GlueMarginsLeft
350
16C
  3
MultiPageSettings/GlueMarginsRight
350
16D
  3
MultiPageSettings/GlueMarginsTop
350
16E
  3
MultiPageSettings/PrintCropMarks
350
16F
  3
MultiPageSettings/Rows
350
170
  3
PageSettings/OffsetX
350
171
  3
PageSettings/OffsetY
350
172
  3
PageSettings/PageOrientation
350
173
  3
PageSettings/PaperHeight
350
174
  3
PageSettings/PaperWidth
350
175
  3
PageSettings/Scale
350
176
  3
PageSettings/ShowPaperBorders
350
177
  3
QCADVersion
350
178
  3
UnitSettings/PaperUnit
350
179
  3
ViewportCenter
350
17A
  3
ViewportHeight
350
17B
  3
ViewportWidth
350
17C
  0
XRECORD
  5
14C
330
149
100
AcDbXrecord
280
1
1000
Bianco
  0
XRECORD
  5
14D
330
149
100
AcDbXrecord
280
1
1000
FullColor
  0
XRECORD
  5
14E
330
149
100
AcDbXrecord
280
1
290
1
  0
XRECORD
  5
14F
330
149
100
AcDbXrecord
280
1
290
1
  0
XRECORD
  5
150
330
149
100
AcDbXrecord
280
1
290
1
  0
XRECORD
  5
151
330
149
100
AcDbXrecord
280
1
290
1
  0
XRECORD
  5
152
330
149
100
AcDbXrecord
280
1
1000
auto
  0
XRECORD
  5
153
330
149
100
AcDbXrecord
280
1
1000
auto
  0
XRECORD
  5
154
330
149
100
AcDbXrecord
280
1
1000
auto
  0
XRECORD
  5
155
330
149
100
AcDbXrecord
280
1
1000
auto
  0
XRECORD
  5
156
330
149
100
AcDbXrecord
280
1
1000
auto
  0
XRECORD
  5
157
330
149
100
AcDbXrecord
280
1
1000
auto
  0
XRECORD
  5
158
330
149
100
AcDbXrecord
280
1
1000
auto
  0
XRECORD
  5
159
330
149
100
AcDbXrecord
280
1
1000
auto
  0
XRECORD
  5
15A
330
149
100
AcDbXrecord
280
1
290
0
  0
XRECORD
  5
15B
330
149
100
AcDbXrecord
280
1
290
0
  0
XRECORD
  5
15C
330
149
100
AcDbXrecord
280
1
290
0
  0
XRECORD
  5
15D
330
149
100
AcDbXrecord
280
1
290
0
  0
XRECORD
  5
15E
330
149
100
AcDbXrecord
280
1
 90
65537
  0
XRECORD
  5
15F
330
149
100
AcDbXrecord
280
1
 90
65537
  0
XRECORD
  5
160
330
149
100
AcDbXrecord
280
1
 90
65537
  0
XRECORD
  5
161
330
149
100
AcDbXrecord
280
1
 90
65537
  0
XRECORD
  5
162
330
149
100
AcDbXrecord
280
1
1000
auto
  0
XRECORD
  5
163
330
149
100
AcDbXrecord
280
1
1000
auto
  0
XRECORD
  5
164
330
149
100
AcDbXrecord
280
1
1000
auto
  0
XRECORD
  5
165
330
149
100
AcDbXrecord
280
1
1000
auto
  0
XRECORD
  5
166
330
149
100
AcDbXrecord
280
1
1000
auto
  0
XRECORD
  5
167
330
149
100
AcDbXrecord
280
1
1000
auto
  0
XRECORD
  5
168
330
149
100
AcDbXrecord
280
1
1000
auto
  0
XRECORD
  5
169
330
149
100
AcDbXrecord
280
1
1000
auto
  0
XRECORD
  5
16A
330
149
100
AcDbXrecord
280
1
 90
1
  0
XRECORD
  5
16B
330
149
100
AcDbXrecord
280
1
 40
10.0
  0
XRECORD
  5
16C
330
149
100
AcDbXrecord
280
1
 40
10.0
  0
XRECORD
  5
16D
330
149
100
AcDbXrecord
280
1
 40
10.0
  0
XRECORD
  5
16E
330
149
100
AcDbXrecord
280
1
 40
10.0
  0
XRECORD
  5
16F
330
149
100
AcDbXrecord
280
1
290
0
  0
XRECORD
  5
170
330
149
100
AcDbXrecord
280
1
 90
1
  0
XRECORD
  5
171
330
149
100
AcDbXrecord
280
1
 40
0.0
  0
XRECORD
  5
172
330
149
100
AcDbXrecord
280
1
 40
0.0
  0
XRECORD
  5
173
330
149
100
AcDbXrecord
280
1
1000
Portrait
  0
XRECORD
  5
174
330
149
100
AcDbXrecord
280
1
 40
297.0
  0
XRECORD
  5
175
330
149
100
AcDbXrecord
280
1
 40
210.0
  0
XRECORD
  5
176
330
149
100
AcDbXrecord
280
1
1000
1:1
  0
XRECORD
  5
177
330
149
100
AcDbXrecord
280
1
290
1
  0
XRECORD
  5
178
330
149
100
AcDbXrecord
280
1
1000
3.21.3.11
  0
XRECORD
  5
179
330
149
100
AcDbXrecord
280
1
 90
4
  0
XRECORD
  5
17B
330
149
100
AcDbXrecord
280
1
 40
63.8445026178010195
  0
XRECORD
  5
17C
330
149
100
AcDbXrecord
280
1
 40
127.8510471204187979
  0
ENDSEC
  0
EOF
