999
dxflib 3.17.0.0
  0
SECTION
  2
HEADER
  9
$ACADVER
  1
AC1015
  9
$HANDSEED
  5
FFFF
  9
$ANGBASE
 50
0.0
  9
$ANGDIR
 70
0
  9
$ATTMODE
 70
1
  9
$AUNITS
 70
0
  9
$AUPREC
 70
0
  9
$CECOLOR
 62
18
  9
$CELTSCALE
 40
1.0
  9
$CHAMFERA
 40
0.0
  9
$CHAMFERB
 40
0.0
  9
$CHAMFERC
 40
0.0
  9
$CHAMFERD
 40
0.0
  9
$CMLJUST
 70
0
  9
$CMLSCALE
 40
1.0
  9
$DIMADEC
 70
0
  9
$DIMALT
 70
0
  9
$DIMALTD
 70
3
  9
$DIMALTF
 40
0.0393700787
  9
$DIMALTRND
 40
0.0
  9
$DIMALTTD
 70
3
  9
$DIMALTTZ
 70
0
  9
$DIMALTU
 70
2
  9
$DIMALTZ
 70
0
  9
$DIMAPOST
  1

  9
$DIMASZ
 40
2.5
  9
$DIMATFIT
 70
3
  9
$DIMAUNIT
 70
0
  9
$DIMAZIN
 70
0
  9
$DIMBLK
  1

  9
$DIMBLK1
  1

  9
$DIMBLK2
  1

  9
$DIMCEN
 40
2.5
  9
$DIMCLRD
 70
18
  9
$DIMCLRE
 70
18
  9
$DIMCLRT
 70
18
  9
$DIMDEC
 70
2
  9
$DIMDLE
 40
0.0
  9
$DIMDLI
 40
3.75
  9
$DIMDSEP
 70
44
  9
$DIMEXE
 40
1.25
  9
$DIMEXO
 40
0.625
  9
$DIMFRAC
 70
0
  9
$DIMGAP
 40
0.625
  9
$DIMJUST
 70
0
  9
$DIMLDRBLK
  1

  9
$DIMLFAC
 40
1.0
  9
$DIMLIM
 70
0
  9
$DIMLUNIT
 70
2
  9
$DIMLWD
 70
-2
  9
$DIMLWE
 70
-2
  9
$DIMPOST
  1

  9
$DIMRND
 40
0.0
  9
$DIMSAH
 70
0
  9
$DIMSCALE
 40
1.0
  9
$DIMSD1
 70
0
  9
$DIMSD2
 70
0
  9
$DIMSE1
 70
0
  9
$DIMSE2
 70
0
  9
$DIMSOXD
 70
0
  9
$DIMTAD
 70
1
  9
$DIMTDEC
 70
2
  9
$DIMTFAC
 40
1.0
  9
$DIMTIH
 70
0
  9
$DIMTIX
 70
0
  9
$DIMTM
 40
0.0
  9
$DIMTOFL
 70
1
  9
$DIMTOH
 70
0
  9
$DIMTOL
 70
0
  9
$DIMTOLJ
 70
0
  9
$DIMTP
 40
0.0
  9
$DIMTSZ
 40
0.0
  9
$DIMTVP
 40
0.0
  9
$DIMTXSTY
  7
Standard
  9
$DIMTXT
 40
2.5
  9
$DIMTZIN
 70
8
  9
$DIMUPT
 70
0
  9
$DIMZIN
 70
8
  9
$DISPSILH
 70
0
  9
$DWGCODEPAGE
  3
ANSI_1252
  9
$ELEVATION
 40
0.0
  9
$EXTMAX
 10
1017.0295118764059907
 20
678.7579606138024246
 30
0.0000000000000153
  9
$EXTMIN
 10
-300.2375575099476919
 20
-648.0439321889662097
 30
-0.0000000000000153
  9
$FILLETRAD
 40
0.9
  9
$FILLMODE
 70
1
  9
$INSBASE
 10
0.0
 20
0.0
 30
0.0
  9
$INSUNITS
 70
4
  9
$LIMCHECK
 70
0
  9
$LIMMAX
 10
12.0
 20
9.0
  9
$LIMMIN
 10
0.0
 20
0.0
  9
$LTSCALE
 40
1.0
  9
$LUNITS
 70
2
  9
$LUPREC
 70
4
  9
$MAXACTVP
 70
64
  9
$MEASUREMENT
 70
0
  9
$MIRRTEXT
 70
1
  9
$ORTHOMODE
 70
0
  9
$PDMODE
 70
0
  9
$PDSIZE
 40
0.0
  9
$PELEVATION
 40
0.0
  9
$PEXTMAX
 10
-100000000000000000000.0
 20
-100000000000000000000.0
 30
-100000000000000000000.0
  9
$PEXTMIN
 10
100000000000000000000.0
 20
100000000000000000000.0
 30
100000000000000000000.0
  9
$PINSBASE
 10
0.0
 20
0.0
 30
0.0
  9
$PLIMCHECK
 70
0
  9
$PLIMMAX
 10
10.75
 20
8.25
  9
$PLIMMIN
 10
-0.25
 20
-0.25
  9
$PLINEGEN
 70
0
  9
$PLINEWID
 40
0.0
  9
$PROXYGRAPHICS
 70
1
  9
$PSLTSCALE
 70
1
  9
$PUCSNAME
  2

  9
$PUCSORG
 10
0.0
 20
0.0
 30
0.0
  9
$PUCSXDIR
 10
1.0
 20
0.0
 30
0.0
  9
$PUCSYDIR
 10
0.0
 20
1.0
 30
0.0
  9
$QTEXTMODE
 70
0
  9
$REGENMODE
 70
1
  9
$SHADEDGE
 70
3
  9
$SHADEDIF
 70
70
  9
$SKETCHINC
 40
0.1
  9
$SKPOLY
 70
0
  9
$SPLFRAME
 70
0
  9
$SPLINESEGS
 70
12
  9
$SPLINETYPE
 70
6
  9
$SURFTAB1
 70
6
  9
$SURFTAB2
 70
6
  9
$SURFTYPE
 70
6
  9
$SURFU
 70
6
  9
$SURFV
 70
6
  9
$TEXTSIZE
 40
3.0
  9
$TEXTSTYLE
  7
Standard
  9
$THICKNESS
 40
0.0
  9
$TILEMODE
 70
1
  9
$TRACEWID
 40
0.05
  9
$TREEDEPTH
 70
3020
  9
$UCSNAME
  2

  9
$UCSORG
 10
0.0
 20
0.0
 30
0.0
  9
$UCSXDIR
 10
1.0
 20
0.0
 30
0.0
  9
$UCSYDIR
 10
0.0
 20
1.0
 30
0.0
  9
$UNITMODE
 70
0
  9
$USERI1
 70
0
  9
$USERI2
 70
0
  9
$USERI3
 70
0
  9
$USERI4
 70
0
  9
$USERI5
 70
0
  9
$USERR1
 40
0.0
  9
$USERR2
 40
0.0
  9
$USERR3
 40
0.0
  9
$USERR4
 40
0.0
  9
$USERR5
 40
0.0
  9
$USRTIMER
 70
1
  9
$VISRETAIN
 70
1
  0
ENDSEC
  0
SECTION
  2
TABLES
  0
TABLE
  2
VPORT
  5
8
100
AcDbSymbolTable
 70
1
  0
VPORT
  5
30
100
AcDbSymbolTableRecord
100
AcDbViewportTableRecord
  2
*Active
 70
0
 10
0.0
 20
0.0
 11
1.0
 21
1.0
 12
286.3055555555554861
 22
148.5
 13
0.0
 23
0.0
 14
10.0
 24
10.0
 15
10.0
 25
10.0
 16
0.0
 26
0.0
 36
1.0
 17
0.0
 27
0.0
 37
0.0
 40
297.0
 41
1.92798353909465
 42
50.0
 43
0.0
 44
0.0
 50
0.0
 51
0.0
 71
0
 72
100
 73
1
 74
3
 75
1
 76
1
 77
0
 78
0
281
0
 65
1
110
0.0
120
0.0
130
0.0
111
1.0
121
0.0
131
0.0
112
0.0
122
1.0
132
0.0
 79
0
146
0.0
  0
ENDTAB
  0
TABLE
  2
LTYPE
  5
5
100
AcDbSymbolTable
 70
50
  0
LTYPE
  5
16
100
AcDbSymbolTableRecord
100
AcDbLinetypeTableRecord
  2
Continuous
 70
0
  3
Solid line
 72
65
 73
0
 40
0.0
  0
LTYPE
  5
31
100
AcDbSymbolTableRecord
100
AcDbLinetypeTableRecord
  2
PHANTOM
 70
0
  3
Phantom ______  __  __  ______  __  __  ______ 
 72
65
 73
6
 40
63.5000000000000071
 49
31.75
 74
0
 49
-6.3499999999999996
 74
0
 49
6.3499999999999996
 74
0
 49
-6.3499999999999996
 74
0
 49
6.3499999999999996
 74
0
 49
-6.3499999999999996
 74
0
  0
LTYPE
  5
32
100
AcDbSymbolTableRecord
100
AcDbLinetypeTableRecord
  2
PHANTOM2
 70
0
  3
Phantom (.5x) ___ _ _ ___ _ _ ___ _ _ ___ _ _
 72
65
 73
6
 40
31.7500000000000036
 49
15.875
 74
0
 49
-3.1749999999999998
 74
0
 49
3.1749999999999998
 74
0
 49
-3.1749999999999998
 74
0
 49
3.1749999999999998
 74
0
 49
-3.1749999999999998
 74
0
  0
LTYPE
  5
33
100
AcDbSymbolTableRecord
100
AcDbLinetypeTableRecord
  2
ACAD_ISO12W100
 70
0
  3
ISO dash double-dot __ . . __ . . __ . . __ . . 
 72
65
 73
6
 40
21.0
 49
12.0
 74
0
 49
-2.9500000000000002
 74
0
 49
0.1
 74
0
 49
-2.9000000000000004
 74
0
 49
0.1
 74
0
 49
-2.9500000000000002
 74
0
  0
LTYPE
  5
34
100
AcDbSymbolTableRecord
100
AcDbLinetypeTableRecord
  2
ACAD_ISO03W100
 70
0
  3
ISO dash space __    __    __    __    __    __
 72
65
 73
2
 40
30.0
 49
12.0
 74
0
 49
-18.0
 74
0
  0
LTYPE
  5
35
100
AcDbSymbolTableRecord
100
AcDbLinetypeTableRecord
  2
HIDDEN
 70
0
  3
Hidden __ __ __ __ __ __ __ __ __ __ __ __ __ __
 72
65
 73
2
 40
9.5249999999999986
 49
6.3499999999999996
 74
0
 49
-3.1749999999999998
 74
0
  0
LTYPE
  5
36
100
AcDbSymbolTableRecord
100
AcDbLinetypeTableRecord
  2
CENTER
 70
0
  3
Center ____ _ ____ _ ____ _ ____ _ ____ _ ____
 72
65
 73
4
 40
50.8000000000000043
 49
31.75
 74
0
 49
-6.3499999999999996
 74
0
 49
6.3499999999999996
 74
0
 49
-6.3499999999999996
 74
0
  0
LTYPE
  5
37
100
AcDbSymbolTableRecord
100
AcDbLinetypeTableRecord
  2
HIDDEN2
 70
0
  3
Hidden (.5x) _ _ _ _ _ _ _ _ _ _ _ _ _ _ _ _ _ 
 72
65
 73
2
 40
4.7624999999999993
 49
3.1749999999999998
 74
0
 49
-1.5874999999999999
 74
0
  0
LTYPE
  5
38
100
AcDbSymbolTableRecord
100
AcDbLinetypeTableRecord
  2
DIVIDE2
 70
0
  3
Divide (.5x) __..__..__..__..__..__..__..__.._
 72
65
 73
6
 40
15.8749999999999982
 49
6.3499999999999996
 74
0
 49
-3.125
 74
0
 49
0.1
 74
0
 49
-3.0750000000000002
 74
0
 49
0.1
 74
0
 49
-3.125
 74
0
  0
LTYPE
  5
39
100
AcDbSymbolTableRecord
100
AcDbLinetypeTableRecord
  2
ACAD_ISO13W100
 70
0
  3
ISO double-dash double-dot __ __ . . __ __ . . _
 72
65
 73
8
 40
36.0000000000000071
 49
12.0
 74
0
 49
-3.0
 74
0
 49
12.0
 74
0
 49
-2.9500000000000002
 74
0
 49
0.1
 74
0
 49
-2.9000000000000004
 74
0
 49
0.1
 74
0
 49
-2.9500000000000002
 74
0
  0
LTYPE
  5
3A
100
AcDbSymbolTableRecord
100
AcDbLinetypeTableRecord
  2
CENTERX2
 70
0
  3
Center (2x) ________  __  ________  __  _____
 72
65
 73
4
 40
101.6000000000000085
 49
63.5
 74
0
 49
-12.6999999999999993
 74
0
 49
12.6999999999999993
 74
0
 49
-12.6999999999999993
 74
0
  0
LTYPE
  5
3B
100
AcDbSymbolTableRecord
100
AcDbLinetypeTableRecord
  2
PHANTOMX2
 70
0
  3
Phantom (2x) ____________    ____    ____   _
 72
65
 73
6
 40
127.0000000000000142
 49
63.5
 74
0
 49
-12.6999999999999993
 74
0
 49
12.6999999999999993
 74
0
 49
-12.6999999999999993
 74
0
 49
12.6999999999999993
 74
0
 49
-12.6999999999999993
 74
0
  0
LTYPE
  5
3C
100
AcDbSymbolTableRecord
100
AcDbLinetypeTableRecord
  2
DRAINAGE
 70
0
  3
Drainage ---->---->---->----
 72
65
 73
1
 40
5.0800000000000001
 49
5.0800000000000001
 74
0
  0
LTYPE
  5
3D
100
AcDbSymbolTableRecord
100
AcDbLinetypeTableRecord
  2
FENCELINE1
 70
0
  3
Fenceline circle ----0-----0----0-----0----0-----0--
 72
65
 73
2
 40
8.8900000000000006
 49
6.3499999999999996
 74
0
 49
-2.54
 74
0
  0
LTYPE
  5
3E
100
AcDbSymbolTableRecord
100
AcDbLinetypeTableRecord
  2
ACAD_ISO11W100
 70
0
  3
ISO double-dash dot __ __ . __ __ . __ __ . __ _
 72
65
 73
6
 40
33.0
 49
12.0
 74
0
 49
-3.0
 74
0
 49
12.0
 74
0
 49
-2.9500000000000002
 74
0
 49
0.1
 74
0
 49
-2.9500000000000002
 74
0
  0
LTYPE
  5
3F
100
AcDbSymbolTableRecord
100
AcDbLinetypeTableRecord
  2
DASHDOTX2
 70
0
  3
Dash dot (2x) ____  .  ____  .  ____  .  ___
 72
65
 73
4
 40
50.7999999999999972
 49
25.3999999999999986
 74
0
 49
-12.6499999999999986
 74
0
 49
0.1
 74
0
 49
-12.6499999999999986
 74
0
  0
LTYPE
  5
40
100
AcDbSymbolTableRecord
100
AcDbLinetypeTableRecord
  2
ACAD_ISO08W100
 70
0
  3
ISO long-dash short-dash ____ __ ____ __ ____ _
 72
65
 73
4
 40
36.0
 49
24.0
 74
0
 49
-3.0
 74
0
 49
6.0
 74
0
 49
-3.0
 74
0
  0
LTYPE
  5
41
100
AcDbSymbolTableRecord
100
AcDbLinetypeTableRecord
  2
BORDER2
 70
0
  3
Border (.5x) __.__.__.__.__.__.__.__.__.__.__.
 72
65
 73
6
 40
22.2250000000000014
 49
6.3499999999999996
 74
0
 49
-3.1749999999999998
 74
0
 49
6.3499999999999996
 74
0
 49
-3.125
 74
0
 49
0.1
 74
0
 49
-3.125
 74
0
  0
LTYPE
  5
42
100
AcDbSymbolTableRecord
100
AcDbLinetypeTableRecord
  2
CENTER2
 70
0
  3
Center (.5x) ___ _ ___ _ ___ _ ___ _ ___ _ ___
 72
65
 73
4
 40
28.5750000000000028
 49
19.0500000000000007
 74
0
 49
-3.1749999999999998
 74
0
 49
3.1749999999999998
 74
0
 49
-3.1749999999999998
 74
0
  0
LTYPE
  5
43
100
AcDbSymbolTableRecord
100
AcDbLinetypeTableRecord
  2
DASHED2
 70
0
  3
Dashed (.5x) _ _ _ _ _ _ _ _ _ _ _ _ _ _ _ _ _ 
 72
65
 73
2
 40
9.5249999999999986
 49
6.3499999999999996
 74
0
 49
-3.1749999999999998
 74
0
  0
LTYPE
  5
44
100
AcDbSymbolTableRecord
100
AcDbLinetypeTableRecord
  2
DASHDOT
 70
0
  3
Dash dot __ . __ . __ . __ . __ . __ . __ . __
 72
65
 73
4
 40
25.4000000000000021
 49
12.6999999999999993
 74
0
 49
-6.2999999999999998
 74
0
 49
0.1
 74
0
 49
-6.2999999999999998
 74
0
  0
LTYPE
  5
14
100
AcDbSymbolTableRecord
100
AcDbLinetypeTableRecord
  2
ByBlock
 70
0
  3

 72
65
 73
0
 40
0.0
  0
LTYPE
  5
45
100
AcDbSymbolTableRecord
100
AcDbLinetypeTableRecord
  2
ACAD_ISO04W100
 70
0
  3
ISO long-dash dot ____ . ____ . ____ . ____ . _
 72
65
 73
4
 40
30.0
 49
24.0
 74
0
 49
-2.9500000000000002
 74
0
 49
0.1
 74
0
 49
-2.9500000000000002
 74
0
  0
LTYPE
  5
46
100
AcDbSymbolTableRecord
100
AcDbLinetypeTableRecord
  2
HOT_WATER_SUPPLY
 70
0
  3
Hot water supply ---- HW ---- HW ---- HW ----
 72
65
 73
2
 40
17.7800000000000011
 49
12.6999999999999993
 74
0
 49
-5.0800000000000001
 74
0
  0
LTYPE
  5
47
100
AcDbSymbolTableRecord
100
AcDbLinetypeTableRecord
  2
ACAD_ISO15W100
 70
0
  3
ISO double-dash triple-dot __ __ . . . __ __ . .
 72
65
 73
10
 40
39.0000000000000071
 49
12.0
 74
0
 49
-3.0
 74
0
 49
12.0
 74
0
 49
-2.9500000000000002
 74
0
 49
0.1
 74
0
 49
-2.9000000000000004
 74
0
 49
0.1
 74
0
 49
-2.9000000000000004
 74
0
 49
0.1
 74
0
 49
-2.9500000000000002
 74
0
  0
LTYPE
  5
48
100
AcDbSymbolTableRecord
100
AcDbLinetypeTableRecord
  2
DIVIDE
 70
0
  3
Divide ____ . . ____ . . ____ . . ____ . . ____
 72
65
 73
6
 40
31.7500000000000036
 49
12.6999999999999993
 74
0
 49
-6.2999999999999998
 74
0
 49
0.1
 74
0
 49
-6.25
 74
0
 49
0.1
 74
0
 49
-6.2999999999999998
 74
0
  0
LTYPE
  5
49
100
AcDbSymbolTableRecord
100
AcDbLinetypeTableRecord
  2
BATTING
 70
0
  3
Batting SSSSSSSSSSSSSSSSSSSSSSSSSSSSSSSSSSSSSSSSSSSSSSS
 72
65
 73
2
 40
2.5425400000000002
 49
0.00254
 74
0
 49
-2.54
 74
0
  0
LTYPE
  5
4A
100
AcDbSymbolTableRecord
100
AcDbLinetypeTableRecord
  2
ACAD_ISO09W100
 70
0
  3
ISO long-dash double-short-dash ____ __ __ ____
 72
65
 73
6
 40
45.0
 49
24.0
 74
0
 49
-3.0
 74
0
 49
6.0
 74
0
 49
-3.0
 74
0
 49
6.0
 74
0
 49
-3.0
 74
0
  0
LTYPE
  5
4B
100
AcDbSymbolTableRecord
100
AcDbLinetypeTableRecord
  2
BORDER
 70
0
  3
Border __ __ . __ __ . __ __ . __ __ . __ __ .
 72
65
 73
6
 40
44.4499999999999957
 49
12.6999999999999993
 74
0
 49
-6.3499999999999996
 74
0
 49
12.6999999999999993
 74
0
 49
-6.2999999999999998
 74
0
 49
0.1
 74
0
 49
-6.2999999999999998
 74
0
  0
LTYPE
  5
4C
100
AcDbSymbolTableRecord
100
AcDbLinetypeTableRecord
  2
ACAD_ISO14W100
 70
0
  3
ISO dash triple-dot __ . . . __ . . . __ . . . _
 72
65
 73
8
 40
24.0000000000000036
 49
12.0
 74
0
 49
-2.9500000000000002
 74
0
 49
0.1
 74
0
 49
-2.9000000000000004
 74
0
 49
0.1
 74
0
 49
-2.9000000000000004
 74
0
 49
0.1
 74
0
 49
-2.9500000000000002
 74
0
  0
LTYPE
  5
4D
100
AcDbSymbolTableRecord
100
AcDbLinetypeTableRecord
  2
DOTX2
 70
0
  3
Dot (2x) .  .  .  .  .  .  .  .  .  .  .  .  .  .
 72
65
 73
2
 40
12.6999999999999993
 49
0.1
 74
0
 49
-12.5999999999999996
 74
0
  0
LTYPE
  5
4E
100
AcDbSymbolTableRecord
100
AcDbLinetypeTableRecord
  2
HIDDENX2
 70
0
  3
Hidden (2x) ____ ____ ____ ____ ____ ____ ____ 
 72
65
 73
2
 40
19.0499999999999972
 49
12.6999999999999993
 74
0
 49
-6.3499999999999996
 74
0
  0
LTYPE
  5
4F
100
AcDbSymbolTableRecord
100
AcDbLinetypeTableRecord
  2
ACAD_ISO07W100
 70
0
  3
ISO dot . . . . . . . . . . . . . . . . . . . . 
 72
65
 73
2
 40
3.0
 49
0.1
 74
0
 49
-2.8999999999999999
 74
0
  0
LTYPE
  5
50
100
AcDbSymbolTableRecord
100
AcDbLinetypeTableRecord
  2
TRACKS
 70
0
  3
Tracks -|-|-|-|-|-|-|-|-|-|-|-|-|-|-|-|-|-|-|-|-|-|-|-|-
 72
65
 73
1
 40
3.8100000000000001
 49
3.8100000000000001
 74
0
  0
LTYPE
  5
51
100
AcDbSymbolTableRecord
100
AcDbLinetypeTableRecord
  2
ZIGZAG
 70
0
  3
Zig zag /\/\/\/\/\/\/\/\/\/\/\/\/\/\/\/\/\/\/\/\/\/\/\/
 72
65
 73
2
 40
5.0825399999999998
 49
0.00254
 74
0
 49
-5.0800000000000001
 74
0
  0
LTYPE
  5
52
100
AcDbSymbolTableRecord
100
AcDbLinetypeTableRecord
  2
DOT
 70
0
  3
Dot . . . . . . . . . . . . . . . . . . . . . . . .
 72
65
 73
2
 40
6.3499999999999996
 49
0.1
 74
0
 49
-6.25
 74
0
  0
LTYPE
  5
53
100
AcDbSymbolTableRecord
100
AcDbLinetypeTableRecord
  2
DASHEDX2
 70
0
  3
Dashed (2x) ____  ____  ____  ____  ____  ___
 72
65
 73
2
 40
38.0999999999999943
 49
25.3999999999999986
 74
0
 49
-12.6999999999999993
 74
0
  0
LTYPE
  5
54
100
AcDbSymbolTableRecord
100
AcDbLinetypeTableRecord
  2
ACAD_ISO05W100
 70
0
  3
ISO long-dash double-dot ____ .. ____ .. ____ . 
 72
65
 73
6
 40
33.0000000000000071
 49
24.0
 74
0
 49
-2.9500000000000002
 74
0
 49
0.1
 74
0
 49
-2.9000000000000004
 74
0
 49
0.1
 74
0
 49
-2.9500000000000002
 74
0
  0
LTYPE
  5
55
100
AcDbSymbolTableRecord
100
AcDbLinetypeTableRecord
  2
FENCELINE2
 70
0
  3
Fenceline square ----[]-----[]----[]-----[]----[]---
 72
65
 73
2
 40
8.8900000000000006
 49
6.3499999999999996
 74
0
 49
-2.54
 74
0
  0
LTYPE
  5
56
100
AcDbSymbolTableRecord
100
AcDbLinetypeTableRecord
  2
DIVIDEX2
 70
0
  3
Divide (2x) ________  .  .  ________  .  .  _
 72
65
 73
6
 40
63.5
 49
25.3999999999999986
 74
0
 49
-12.6499999999999986
 74
0
 49
0.1
 74
0
 49
-12.5999999999999979
 74
0
 49
0.1
 74
0
 49
-12.6499999999999986
 74
0
  0
LTYPE
  5
57
100
AcDbSymbolTableRecord
100
AcDbLinetypeTableRecord
  2
ACAD_ISO10W100
 70
0
  3
ISO dash dot __ . __ . __ . __ . __ . __ . __ . 
 72
65
 73
4
 40
18.0
 49
12.0
 74
0
 49
-2.9500000000000002
 74
0
 49
0.1
 74
0
 49
-2.9500000000000002
 74
0
  0
LTYPE
  5
58
100
AcDbSymbolTableRecord
100
AcDbLinetypeTableRecord
  2
ACAD_ISO06W100
 70
0
  3
ISO long-dash triple-dot ____ ... ____ ... ____
 72
65
 73
8
 40
36.0000000000000071
 49
24.0
 74
0
 49
-2.9500000000000002
 74
0
 49
0.1
 74
0
 49
-2.9000000000000004
 74
0
 49
0.1
 74
0
 49
-2.9000000000000004
 74
0
 49
0.1
 74
0
 49
-2.9500000000000002
 74
0
  0
LTYPE
  5
59
100
AcDbSymbolTableRecord
100
AcDbLinetypeTableRecord
  2
DASHED
 70
0
  3
Dashed __ __ __ __ __ __ __ __ __ __ __ __ __ _
 72
65
 73
2
 40
19.0499999999999972
 49
12.6999999999999993
 74
0
 49
-6.3499999999999996
 74
0
  0
LTYPE
  5
5A
100
AcDbSymbolTableRecord
100
AcDbLinetypeTableRecord
  2
GAS_LINE
 70
0
  3
Gas line ----GAS----GAS----GAS----GAS----GAS----GAS--
 72
65
 73
2
 40
17.7800000000000011
 49
12.6999999999999993
 74
0
 49
-5.0800000000000001
 74
0
  0
LTYPE
  5
5B
100
AcDbSymbolTableRecord
100
AcDbLinetypeTableRecord
  2
DOT2
 70
0
  3
Dot (.5x) ........................................
 72
65
 73
2
 40
3.1749999999999998
 49
0.1
 74
0
 49
-3.0749999999999997
 74
0
  0
LTYPE
  5
5C
100
AcDbSymbolTableRecord
100
AcDbLinetypeTableRecord
  2
DRAINAGE2
 70
0
  3
Drainage reversed----<----<----<----
 72
65
 73
1
 40
5.0800000000000001
 49
5.0800000000000001
 74
0
  0
LTYPE
  5
15
100
AcDbSymbolTableRecord
100
AcDbLinetypeTableRecord
  2
ByLayer
 70
0
  3

 72
65
 73
0
 40
0.0
  0
LTYPE
  5
5D
100
AcDbSymbolTableRecord
100
AcDbLinetypeTableRecord
  2
BORDERX2
 70
0
  3
Border (2x) ____  ____  .  ____  ____  .  ___
 72
65
 73
6
 40
88.8999999999999773
 49
25.3999999999999986
 74
0
 49
-12.6999999999999993
 74
0
 49
25.3999999999999986
 74
0
 49
-12.6499999999999986
 74
0
 49
0.1
 74
0
 49
-12.6499999999999986
 74
0
  0
LTYPE
  5
5E
100
AcDbSymbolTableRecord
100
AcDbLinetypeTableRecord
  2
DASHDOT2
 70
0
  3
Dash dot (.5x) _._._._._._._._._._._._._._._.
 72
65
 73
4
 40
12.6999999999999993
 49
6.3499999999999996
 74
0
 49
-3.125
 74
0
 49
0.1
 74
0
 49
-3.125
 74
0
  0
LTYPE
  5
5F
100
AcDbSymbolTableRecord
100
AcDbLinetypeTableRecord
  2
ACAD_ISO02W100
 70
0
  3
ISO dash __ __ __ __ __ __ __ __ __ __ __ __ __
 72
65
 73
2
 40
15.0
 49
12.0
 74
0
 49
-3.0
 74
0
  0
ENDTAB
  0
TABLE
  2
LAYER
  5
2
100
AcDbSymbolTable
 70
1
  0
LAYER
  5
10
100
AcDbSymbolTableRecord
100
AcDbLayerTableRecord
  2
0
 70
4
 62
7
420
16777215
  6
Continuous
370
-3
390
F
  0
ENDTAB
  0
TABLE
  2
STYLE
  5
3
100
AcDbSymbolTable
 70
1
  0
STYLE
  5
60
100
AcDbSymbolTableRecord
100
AcDbTextStyleTableRecord
  2
Standard
 70
0
 40
0.0
 41
1.0
 50
0.0
 71
0
 42
2.5
  3

  4

1001
ACAD
1000
txt
1071
0
  0
ENDTAB
  0
TABLE
  2
VIEW
  5
6
100
AcDbSymbolTable
 70
0
  0
ENDTAB
  0
TABLE
  2
UCS
  5
7
100
AcDbSymbolTable
 70
0
  0
ENDTAB
  0
TABLE
  2
APPID
  5
9
100
AcDbSymbolTable
 70
1
  0
APPID
  5
12
100
AcDbSymbolTableRecord
100
AcDbRegAppTableRecord
  2
ACAD
 70
0
  0
APPID
  5
61
100
AcDbSymbolTableRecord
100
AcDbRegAppTableRecord
  2
QCAD
 70
0
  0
ENDTAB
  0
TABLE
  2
DIMSTYLE
  5
A
100
AcDbSymbolTable
 70
1
100
AcDbDimStyleTable
 71
0
  0
DIMSTYLE
105
27
100
AcDbSymbolTableRecord
100
AcDbDimStyleTableRecord
  2
Standard
 41
2.5
 42
0.625
 43
3.75
 44
1.25
 70
0
 73
0
 74
0
 77
1
 78
8
140
2.5
141
2.5
143
0.03937007874016
147
0.625
171
3
172
1
271
2
272
2
274
3
278
44
283
0
284
8
340
60
  0
ENDTAB
  0
TABLE
  2
BLOCK_RECORD
  5
1
100
AcDbSymbolTable
 70
1
  0
BLOCK_RECORD
  5
1F
100
AcDbSymbolTableRecord
100
AcDbBlockTableRecord
  2
*Model_Space
340
22
  0
BLOCK_RECORD
  5
1B
100
AcDbSymbolTableRecord
100
AcDbBlockTableRecord
  2
*Paper_Space
340
1E
  0
BLOCK_RECORD
  5
23
100
AcDbSymbolTableRecord
100
AcDbBlockTableRecord
  2
*Paper_Space0
340
26
  0
ENDTAB
  0
ENDSEC
  0
SECTION
  2
BLOCKS
  0
BLOCK
  5
20
100
AcDbEntity
  8
0
100
AcDbBlockBegin
  2
*Model_Space
 70
0
 10
0.0
 20
0.0
 30
0.0
  3
*Model_Space
  1

  0
ENDBLK
  5
21
100
AcDbEntity
  8
0
100
AcDbBlockEnd
  0
BLOCK
  5
1C
100
AcDbEntity
 67
1
  8
0
100
AcDbBlockBegin
  2
*Paper_Space
 70
0
 10
0.0
 20
0.0
 30
0.0
  3
*Paper_Space
  1

  0
ENDBLK
  5
1D
100
AcDbEntity
 67
1
  8
0
100
AcDbBlockEnd
  0
BLOCK
  5
24
100
AcDbEntity
  8
0
100
AcDbBlockBegin
  2
*Paper_Space0
 70
0
 10
0.0
 20
0.0
 30
0.0
  3
*Paper_Space0
  1

  0
ENDBLK
  5
25
100
AcDbEntity
  8
0
100
AcDbBlockEnd
  0
ENDSEC
  0
SECTION
  2
ENTITIES
  0
LWPOLYLINE
  5
62
100
AcDbEntity
  8
0
 62
256
370
-1
 48
1.0
  6
ByLayer
100
AcDbPolyline
 90
8
 70
1
 10
80.7822060482471755
 20
-1.2721218400016392
 42
-0.5543499190558244
 10
80.7822060482471755
 20
1.2721218400005432
 10
89.95164494145682
 20
7.0010260562322832
 42
-0.5015562324917175
 10
92.1922318470180784
 20
6.1285270082429619
 10
93.7757291641835167
 20
0.3996227920107663
 42
-0.135659067723606
 10
93.7757291641835167
 20
-0.3996227920118623
 10
92.1922318470180784
 20
-6.1285270082438306
 42
-0.5015562324917267
 10
89.95164494145682
 20
-7.0010260562333784
  0
LWPOLYLINE
  5
63
100
AcDbEntity
  8
0
 62
256
370
-1
 48
1.0
  6
ByLayer
100
AcDbPolyline
 90
8
 70
1
 10
43.335794384041094
 20
-1.2721218400011409
 42
0.5543499190558244
 10
43.335794384041165
 20
1.2721218400010486
 10
34.1663554908316769
 20
7.0010260562330302
 42
0.5015562324917175
 10
31.9257685852703865
 20
6.1285270082437577
 10
30.3422712681047919
 20
0.399622792011602
 42
0.135659067723606
 10
30.3422712681047742
 20
-0.3996227920110123
 10
31.9257685852700668
 20
-6.1285270082430259
 42
0.5015562324917267
 10
34.1663554908312932
 20
-7.0010260562326501
  0
LWPOLYLINE
  5
64
100
AcDbEntity
  8
0
 62
256
370
-1
 48
1.0
  6
ByLayer
100
AcDbPolyline
 90
4
 70
1
 10
-0.3460176816195144
 20
14.4999999999994298
 42
-1.0
 10
-0.3460176816195144
 20
16.4999999999995488
 10
19.6539823183805993
 20
16.4999999999994316
 42
-1.0
 10
19.6539823183805993
 20
14.4999999999995506
  0
LWPOLYLINE
  5
65
100
AcDbEntity
  8
0
 62
256
370
-1
 48
1.0
  6
ByLayer
100
AcDbPolyline
 90
6
 70
1
 10
14.9488604456764698
 20
5.0658897556967304
 42
-0.7065604032167837
 10
15.2544745238998303
 20
6.4463130895909444
 10
19.6978251353722307
 20
6.9942123444614026
 42
-0.5344022315826927
 10
20.5125045099293892
 20
6.0500385345616223
 10
19.7290280498020785
 20
3.2155142527177532
 42
-0.5015562324917072
 10
18.6087345970216802
 20
2.779264728723092
  0
LWPOLYLINE
  5
66
100
AcDbEntity
  8
0
 62
256
370
-1
 48
1.0
  6
ByLayer
100
AcDbPolyline
 90
4
 70
1
 10
3.7431779104776979
 20
3.4999999999995448
 42
-1.0
 10
3.7431779104776979
 20
5.5000000000015916
 10
9.7431779104764473
 20
5.4999999999984084
 42
-1.0
 10
9.7431779104764473
 20
3.5000000000001141
  0
LWPOLYLINE
  5
67
100
AcDbEntity
  8
0
 62
256
370
-1
 48
1.0
  6
ByLayer
100
AcDbPolyline
 90
8
 70
1
 10
54.1951344988103827
 20
-3.9177355096480819
 42
-0.5015412198784958
 10
52.7014523056401529
 20
-3.336039642953438
 10
51.8530019758729779
 20
-0.2664123474877442
 42
-0.1356575635694535
 10
51.8530019758729779
 20
0.2664123474868347
 10
52.7014523056401529
 20
3.336039642952414
 42
-0.501541219878498
 10
54.1951344988103827
 20
3.9177355096470592
 10
59.108805501784218
 20
0.8481082141813658
 42
-0.5543832131353765
 10
59.108805501784218
 20
-0.848108214182389
  0
LWPOLYLINE
  5
68
100
AcDbEntity
  8
0
 62
256
370
-1
 48
1.0
  6
ByLayer
100
AcDbPolyline
 90
6
 70
1
 10
108.0205681624488534
 20
7.2531757395636252
 42
-0.7065604032167923
 10
108.4789892797838036
 20
5.1825407387223041
 10
102.9891780527665901
 20
1.7526031982618466
 42
-0.5015562324916895
 10
101.3087378735957031
 20
2.4069774842538383
 10
100.1335231834044635
 20
6.658763907019642
 42
-0.5344022315826872
 10
101.3555422452402581
 20
8.0750246218693125
  0
LWPOLYLINE
  5
69
100
AcDbEntity
  8
0
 62
256
370
-1
 48
1.0
  6
ByLayer
100
AcDbPolyline
 90
6
 70
1
 10
108.0205681624488534
 20
-7.2531757395636252
 42
0.7065604032167923
 10
108.4789892797838036
 20
-5.182540738722305
 10
102.9891780527665901
 20
-1.7526031982618469
 42
0.5015562324916895
 10
101.3087378735957031
 20
-2.4069774842538383
 10
100.1335231834044635
 20
-6.6587639070196429
 42
0.5344022315826872
 10
101.3555422452402581
 20
-8.0750246218693107
  0
LWPOLYLINE
  5
6A
100
AcDbEntity
  8
0
 62
256
370
-1
 48
1.0
  6
ByLayer
100
AcDbPolyline
 90
6
 70
1
 10
66.5554992249941506
 20
8.4888711258377043
 42
-0.7516587789083871
 10
67.0278820826089259
 20
6.8255847735334783
 10
62.5888232592794793
 20
4.0524532142532053
 42
-0.2866839934315248
 10
61.5291771730089678
 20
4.0524532142532053
 10
57.0901183496798694
 20
6.8255847735334783
 42
-0.7516587789082323
 10
57.5625012072947584
 20
8.4888711258377043
  0
LWPOLYLINE
  5
6B
100
AcDbEntity
  8
0
 62
256
370
-1
 48
1.0
  6
ByLayer
100
AcDbPolyline
 90
4
 70
1
 10
118.2591561325480001
 20
-1.5500000000004091
 42
-1.0
 10
118.2591561325480001
 20
1.5499999999995
 10
127.1777383887061035
 20
1.5499999999995
 42
-1.0
 10
127.1777383887061035
 20
-1.5500000000004091
  0
LWPOLYLINE
  5
6C
100
AcDbEntity
  8
0
 62
256
370
-1
 48
1.0
  6
ByLayer
100
AcDbPolyline
 90
8
 70
1
 10
69.922865933478306
 20
3.9177355096470592
 42
-0.5015412198784965
 10
71.4165481266487632
 20
3.336039642952414
 10
72.2649984564156966
 20
0.2664123474868347
 42
-0.135657563569446
 10
72.2649984564156966
 20
-0.2664123474877442
 10
71.4165481266487632
 20
-3.336039642953438
 42
-0.5015412198784971
 10
69.922865933478306
 20
-3.9177355096480819
 10
65.0091949305045773
 20
-0.848108214182389
 42
-0.5543832131353752
 10
65.0091949305045773
 20
0.8481082141813658
  0
LWPOLYLINE
  5
6D
100
AcDbEntity
  8
0
 62
256
370
-1
 48
1.0
  6
ByLayer
100
AcDbPolyline
 90
4
 70
1
 10
127.1777383887061035
 20
7.7999999999994998
 42
-1.0
 10
127.1777383887061035
 20
4.6999999999995907
 10
118.2591561325480001
 20
4.6999999999995907
 42
-1.0
 10
118.2591561325480001
 20
7.7999999999994998
  0
LWPOLYLINE
  5
6E
100
AcDbEntity
  8
0
 62
256
370
-1
 48
1.0
  6
ByLayer
100
AcDbPolyline
 90
44
 70
1
 10
-8.5011914794146151
 20
-19.2499999999997691
 42
-0.8430389971007596
 10
-9.8345248127478726
 20
-11.4787638336713407
 42
0.317837245195875
 10
-8.5011914794145014
 20
-9.5931457505076878
 10
-8.5011914794145014
 20
-5.2499999999995453
 42
-0.4142135623731616
 10
-6.5011914794148424
 20
-3.2499999999996589
 10
-3.2499999999996589
 20
-3.2499999999996589
 42
0.9999999999999998
 10
-3.2499999999996589
 20
3.2499999999996589
 10
-6.5011914794148424
 20
3.249999999999432
 42
-0.4142135623731617
 10
-8.5011914794145014
 20
5.2499999999994316
 10
-8.5011914794145014
 20
9.5931457505074604
 42
0.3178372451958859
 10
-9.8345248127478726
 20
11.4787638336711098
 42
-0.8430389971007697
 10
-8.5011914794146151
 20
19.2499999999996589
 10
22.660929671188569
 20
19.2500000000203499
 42
0.4920114272863106
 10
28.7320384995715585
 20
27.1321938418323008
 42
0.0777823893606761
 10
28.2350892796818016
 20
28.265019827401769
 42
-0.9731491630891762
 10
40.6454171293936497
 20
36.6803131499083293
 10
49.0656637858705835
 20
24.9622999761559186
 42
0.5128275292544319
 10
75.0523366464182118
 20
24.9622999761559186
 10
83.4725833028952593
 20
36.6803131499082724
 42
-0.973149163089176
 10
95.8829111526069937
 20
28.2650198274018294
 42
0.077782389360676
 10
95.3859619327173505
 20
27.1321938418325317
 42
0.4920114272863107
 10
101.4570707611000984
 20
19.2500000000203499
 10
132.0090002161443863
 20
19.2500000000010196
 42
-0.3526519878691237
 10
135.9172003343543054
 20
16.1020398089464187
 42
-0.0339464515572096
 10
137.4167617939702097
 20
5.959668468409518
 42
-0.4117713106952988
 10
136.5070301748343127
 20
4.8846347715962111
 10
135.8041915891973019
 20
4.8231443630644426
 42
0.4038595595519876
 10
134.8926879651176876
 20
3.7751860769442369
 42
-0.0258991546469702
 10
134.8926879651176876
 20
-3.7751860769437831
 42
0.4038595595519876
 10
135.8041915891973019
 20
-4.8231443630646709
 10
136.5070301748343127
 20
-4.8846347715963248
 42
-0.4117713106953162
 10
137.4167617939698118
 20
-5.9596684684128149
 42
-0.0339464515571675
 10
135.917200334355897
 20
-16.1020398089400487
 42
-0.352651987869124
 10
132.0090002161443863
 20
-19.2500000000013607
 10
101.4570707611035942
 20
-19.2500000000203499
 42
0.4920114272863105
 10
95.3859619327173505
 20
-27.1321938418327591
 42
0.0777823893606394
 10
95.88291115260688
 20
-28.2650198274017193
 42
-0.9731491630891781
 10
83.4725833028952593
 20
-36.6803131499081019
 10
75.0523366464182118
 20
-24.9622999761561495
 42
0.512827529254468
 10
49.0656637858702425
 20
-24.9622999761569417
 10
40.6454171293936497
 20
-36.6803131499085566
 42
-0.9731491630891781
 10
28.2350892796818016
 20
-28.2650198274022806
 42
0.0777823893606392
 10
28.7320384995715585
 20
-27.1321938418327591
 42
0.4920114272863106
 10
22.660929671188569
 20
-19.2500000000204601
  0
LWPOLYLINE
  5
6F
100
AcDbEntity
  8
0
 62
256
370
-1
 48
1.0
  6
ByLayer
100
AcDbPolyline
 90
4
 70
1
 10
-0.3460176816195144
 20
-14.4999999999996607
 42
1.0
 10
-0.3460176816195144
 20
-16.4999999999997691
 10
19.6539823183805993
 20
-16.4999999999996589
 42
1.0
 10
19.6539823183805993
 20
-14.4999999999997708
  0
LWPOLYLINE
  5
70
100
AcDbEntity
  8
0
 62
256
370
-1
 48
1.0
  6
ByLayer
100
AcDbPolyline
 90
6
 70
1
 10
14.9488604456764698
 20
-5.0658897556968441
 42
0.7065604032167837
 10
15.2544745238998303
 20
-6.4463130895911718
 10
19.6978251353722307
 20
-6.9942123444614026
 42
0.5344022315826927
 10
20.5125045099293892
 20
-6.0500385345618497
 10
19.7290280498020785
 20
-3.215514252717981
 42
0.5015562324917072
 10
18.6087345970216802
 20
-2.779264728723092
  0
LWPOLYLINE
  5
71
100
AcDbEntity
  8
0
 62
256
370
-1
 48
1.0
  6
ByLayer
100
AcDbPolyline
 90
4
 70
1
 10
3.7431779104776979
 20
-3.4999999999997731
 42
1.0
 10
3.7431779104776979
 20
-5.5000000000015916
 10
9.7431779104764473
 20
-5.4999999999984084
 42
1.0
 10
9.7431779104764473
 20
-3.5000000000002269
  0
LWPOLYLINE
  5
72
100
AcDbEntity
  8
0
 62
256
370
-1
 48
1.0
  6
ByLayer
100
AcDbPolyline
 90
6
 70
1
 10
66.5554992249941506
 20
-8.488871125837818
 42
0.7516587789083871
 10
67.0278820826089259
 20
-6.8255847735335919
 10
62.5888232592794793
 20
-4.0524532142532053
 42
0.2866839934315248
 10
61.5291771730089678
 20
-4.0524532142532053
 10
57.0901183496798694
 20
-6.8255847735335919
 42
0.7516587789082323
 10
57.5625012072947584
 20
-8.488871125837818
  0
LWPOLYLINE
  5
73
100
AcDbEntity
  8
0
 62
256
370
-1
 48
1.0
  6
ByLayer
100
AcDbPolyline
 90
4
 70
1
 10
127.1777383887061035
 20
-7.7999999999996126
 42
1.0
 10
127.1777383887061035
 20
-4.6999999999995907
 10
118.2591561325480001
 20
-4.6999999999995907
 42
1.0
 10
118.2591561325480001
 20
-7.7999999999996126
  0
CIRCLE
  5
74
100
AcDbEntity
  8
0
 62
256
370
-1
 48
1.0
  6
ByLayer
100
AcDbCircle
 10
-8.5011914794146151
 20
15.2499999999994298
 30
0.0
 40
1.7249999999999996
  0
CIRCLE
  5
75
100
AcDbEntity
  8
0
 62
256
370
-1
 48
1.0
  6
ByLayer
100
AcDbCircle
 10
-8.5011914794146151
 20
-15.2499999999996607
 30
0.0
 40
1.7249999999999996
  0
CIRCLE
  5
76
100
AcDbEntity
  8
0
 62
256
370
-1
 48
1.0
  6
ByLayer
100
AcDbCircle
 10
5.0
 20
-10.0000000000001101
 30
0.0
 40
1.7249999999999999
  0
CIRCLE
  5
77
100
AcDbEntity
  8
0
 62
256
370
-1
 48
1.0
  6
ByLayer
100
AcDbCircle
 10
25.0
 20
-10.0000000000001101
 30
0.0
 40
1.7250000000000014
  0
CIRCLE
  5
78
100
AcDbEntity
  8
0
 62
256
370
-1
 48
1.0
  6
ByLayer
100
AcDbCircle
 10
33.809156116174222
 20
-15.2499999999996607
 30
0.0
 40
1.7250000000000014
  0
CIRCLE
  5
79
100
AcDbEntity
  8
0
 62
256
370
-1
 48
1.0
  6
ByLayer
100
AcDbCircle
 10
25.0
 20
10.0
 30
0.0
 40
1.7250000000000014
  0
CIRCLE
  5
7A
100
AcDbEntity
  8
0
 62
256
370
-1
 48
1.0
  6
ByLayer
100
AcDbCircle
 10
5.0
 20
10.0
 30
0.0
 40
1.7249999999999999
  0
CIRCLE
  5
7B
100
AcDbEntity
  8
0
 62
256
370
-1
 48
1.0
  6
ByLayer
100
AcDbCircle
 10
33.809156116174222
 20
15.2499999999994298
 30
0.0
 40
1.7250000000000014
  0
CIRCLE
  5
7C
100
AcDbEntity
  8
0
 62
256
370
-1
 48
1.0
  6
ByLayer
100
AcDbCircle
 10
46.8091561161754726
 20
15.2499999999994298
 30
0.0
 40
1.7250000000000014
  0
CIRCLE
  5
7D
100
AcDbEntity
  8
0
 62
256
370
-1
 48
1.0
  6
ByLayer
100
AcDbCircle
 10
52.0591561161753589
 20
10.0
 30
0.0
 40
1.7250000000000014
  0
CIRCLE
  5
7E
100
AcDbEntity
  8
0
 62
256
370
-1
 48
1.0
  6
ByLayer
100
AcDbCircle
 10
34.5547906777026128
 20
32.3037540647406374
 30
0.0
 40
1.7250000000000014
  0
CIRCLE
  5
7F
100
AcDbEntity
  8
0
 62
256
370
-1
 48
1.0
  6
ByLayer
100
AcDbCircle
 10
72.0591561161753589
 20
10.0
 30
0.0
 40
1.7249999999999943
  0
CIRCLE
  5
80
100
AcDbEntity
  8
0
 62
256
370
-1
 48
1.0
  6
ByLayer
100
AcDbCircle
 10
77.3091561161750178
 20
15.2499999999994298
 30
0.0
 40
1.7249999999999943
  0
CIRCLE
  5
81
100
AcDbEntity
  8
0
 62
256
370
-1
 48
1.0
  6
ByLayer
100
AcDbCircle
 10
90.3091561161750178
 20
15.2499999999994298
 30
0.0
 40
1.7249999999999943
  0
CIRCLE
  5
82
100
AcDbEntity
  8
0
 62
256
370
-1
 48
1.0
  6
ByLayer
100
AcDbCircle
 10
89.5632097546197201
 20
32.3037540647120522
 30
0.0
 40
1.7249999999999943
  0
CIRCLE
  5
83
100
AcDbEntity
  8
0
 62
256
370
-1
 48
1.0
  6
ByLayer
100
AcDbCircle
 10
46.8091561161754726
 20
-15.2499999999996607
 30
0.0
 40
1.7250000000000014
  0
CIRCLE
  5
84
100
AcDbEntity
  8
0
 62
256
370
-1
 48
1.0
  6
ByLayer
100
AcDbCircle
 10
52.0591561161753589
 20
-10.0
 30
0.0
 40
1.7250000000000014
  0
CIRCLE
  5
85
100
AcDbEntity
  8
0
 62
256
370
-1
 48
1.0
  6
ByLayer
100
AcDbCircle
 10
72.0591561161753589
 20
-10.0
 30
0.0
 40
1.7249999999999943
  0
CIRCLE
  5
86
100
AcDbEntity
  8
0
 62
256
370
-1
 48
1.0
  6
ByLayer
100
AcDbCircle
 10
77.3091561161750178
 20
-15.2499999999996607
 30
0.0
 40
1.7249999999999943
  0
CIRCLE
  5
87
100
AcDbEntity
  8
0
 62
256
370
-1
 48
1.0
  6
ByLayer
100
AcDbCircle
 10
90.3091561161750178
 20
-15.2499999999996607
 30
0.0
 40
1.7249999999999943
  0
CIRCLE
  5
88
100
AcDbEntity
  8
0
 62
256
370
-1
 48
1.0
  6
ByLayer
100
AcDbCircle
 10
34.5547906777026128
 20
-32.3037540647408221
 30
0.0
 40
1.7250000000000014
  0
CIRCLE
  5
89
100
AcDbEntity
  8
0
 62
256
370
-1
 48
1.0
  6
ByLayer
100
AcDbCircle
 10
89.5632097546197201
 20
-32.303754064712173
 30
0.0
 40
1.7249999999999943
  0
CIRCLE
  5
8A
100
AcDbEntity
  8
0
 62
256
370
-1
 48
1.0
  6
ByLayer
100
AcDbCircle
 10
132.0090002161443863
 20
-15.2500000000006803
 30
0.0
 40
1.7249999999999943
  0
CIRCLE
  5
8B
100
AcDbEntity
  8
0
 62
256
370
-1
 48
1.0
  6
ByLayer
100
AcDbCircle
 10
132.0090002161443863
 20
15.2500000000005702
 30
0.0
 40
1.7249999999999943
  0
ARC
  5
8C
100
AcDbEntity
  8
0
 62
256
370
-1
 48
1.0
  6
ByLayer
100
AcDbCircle
 10
106.5776866870492938
 20
-14.2499999999995506
 30
0.0
 40
1.0
100
AcDbArc
 50
0.0
 51
180.0
  0
ARC
  5
8D
100
AcDbEntity
  8
0
 62
256
370
-1
 48
1.0
  6
ByLayer
100
AcDbCircle
 10
106.5776866870492938
 20
16.2499999999997513
 30
0.0
 40
1.0
100
AcDbArc
 50
0.0
 51
180.0
  0
ARC
  5
8E
100
AcDbEntity
  8
0
 62
256
370
-1
 48
1.0
  6
ByLayer
100
AcDbCircle
 10
106.5776866870492938
 20
-16.2499999999997691
 30
0.0
 40
1.0
100
AcDbArc
 50
180.0
 51
0.0
  0
ARC
  5
8F
100
AcDbEntity
  8
0
 62
256
370
-1
 48
1.0
  6
ByLayer
100
AcDbCircle
 10
106.5776866870492938
 20
14.2499999999995346
 30
0.0
 40
1.0
100
AcDbArc
 50
180.0
 51
0.0
  0
ARC
  5
90
100
AcDbEntity
  8
0
 62
256
370
-1
 48
1.0
  6
ByLayer
100
AcDbCircle
 10
115.5776866870491801
 20
-14.2499999999997708
 30
0.0
 40
1.0
100
AcDbArc
 50
0.0
 51
180.0
  0
ARC
  5
91
100
AcDbEntity
  8
0
 62
256
370
-1
 48
1.0
  6
ByLayer
100
AcDbCircle
 10
115.5776866870491801
 20
16.249999999999531
 30
0.0
 40
1.0
100
AcDbArc
 50
0.0
 51
180.0
  0
ARC
  5
92
100
AcDbEntity
  8
0
 62
256
370
-1
 48
1.0
  6
ByLayer
100
AcDbCircle
 10
115.5776866870491943
 20
-16.2499999999997691
 30
0.0
 40
1.0
100
AcDbArc
 50
180.0
 51
0.0
  0
ARC
  5
93
100
AcDbEntity
  8
0
 62
256
370
-1
 48
1.0
  6
ByLayer
100
AcDbCircle
 10
115.5776866870491943
 20
14.2499999999995346
 30
0.0
 40
1.0
100
AcDbArc
 50
180.0
 51
0.0
  0
LINE
  5
94
100
AcDbEntity
  8
0
 62
256
370
-1
 48
1.0
  6
ByLayer
100
AcDbLine
 10
114.5776866870491801
 20
-14.249999999999746
 30
0.0
 11
107.5776866870492938
 21
-14.2499999999995755
 31
0.0
  0
LINE
  5
95
100
AcDbEntity
  8
0
 62
256
370
-1
 48
1.0
  6
ByLayer
100
AcDbLine
 10
114.5776866870491801
 20
16.2499999999995595
 30
0.0
 11
107.5776866870492938
 21
16.24999999999973
 31
0.0
  0
LINE
  5
96
100
AcDbEntity
  8
0
 62
256
370
-1
 48
1.0
  6
ByLayer
100
AcDbLine
 10
107.5776866870492938
 20
-16.2499999999997691
 30
0.0
 11
114.5776866870491943
 21
-16.2499999999997691
 31
0.0
  0
LINE
  5
97
100
AcDbEntity
  8
0
 62
256
370
-1
 48
1.0
  6
ByLayer
100
AcDbLine
 10
107.5776866870492938
 20
14.2499999999995346
 30
0.0
 11
114.5776866870491943
 21
14.2499999999995346
 31
0.0
  0
LINE
  5
98
100
AcDbEntity
  8
0
 62
256
370
-1
 48
1.0
  6
ByLayer
100
AcDbLine
 10
105.5776866870492938
 20
-16.2499999999997691
 30
0.0
 11
105.5776866870492938
 21
-14.2499999999995506
 31
0.0
  0
LINE
  5
99
100
AcDbEntity
  8
0
 62
256
370
-1
 48
1.0
  6
ByLayer
100
AcDbLine
 10
105.5776866870492938
 20
14.2499999999995346
 30
0.0
 11
105.5776866870492938
 21
16.2499999999997513
 31
0.0
  0
LINE
  5
9A
100
AcDbEntity
  8
0
 62
256
370
-1
 48
1.0
  6
ByLayer
100
AcDbLine
 10
116.5776866870491943
 20
-16.249999999999762
 30
0.0
 11
116.5776866870491801
 21
-14.2499999999997637
 31
0.0
  0
LINE
  5
9B
100
AcDbEntity
  8
0
 62
256
370
-1
 48
1.0
  6
ByLayer
100
AcDbLine
 10
116.5776866870491943
 20
14.2499999999995417
 30
0.0
 11
116.5776866870491801
 21
16.2499999999995381
 31
0.0
  0
ARC
  5
9C
100
AcDbEntity
  8
0
 62
256
370
-1
 48
1.0
  6
ByLayer
100
AcDbCircle
 10
38.5812250360426674
 20
26.7003777291735105
 30
0.0
 40
1.6999999999999458
100
AcDbArc
 50
35.7000000000044508
 51
215.7000000000044508
  0
ARC
  5
9D
100
AcDbEntity
  8
0
 62
256
370
-1
 48
1.0
  6
ByLayer
100
AcDbCircle
 10
38.5812250360426674
 20
-26.700377729173514
 30
0.0
 40
1.6999999999999458
100
AcDbArc
 50
144.2999999999955492
 51
324.2999999999955207
  0
LINE
  5
9E
100
AcDbEntity
  8
0
 62
256
370
-1
 48
1.0
  6
ByLayer
100
AcDbLine
 10
39.961767031758626
 20
27.6923977884789778
 30
0.0
 11
44.1632637661311662
 21
21.8453963773117863
 31
0.0
  0
LINE
  5
9F
100
AcDbEntity
  8
0
 62
256
370
-1
 48
1.0
  6
ByLayer
100
AcDbLine
 10
39.961767031758626
 20
-27.6923977884789849
 30
0.0
 11
44.1632637661311662
 21
-21.8453963773118076
 31
0.0
  0
LINE
  5
A0
100
AcDbEntity
  8
0
 62
256
370
-1
 48
1.0
  6
ByLayer
100
AcDbLine
 10
41.4021797620905829
 20
19.8613562762475162
 30
0.0
 11
37.2006830403267088
 21
25.7083576698680467
 31
0.0
  0
LINE
  5
A1
100
AcDbEntity
  8
0
 62
256
370
-1
 48
1.0
  6
ByLayer
100
AcDbLine
 10
41.4021797620905829
 20
-19.8613562762475304
 30
0.0
 11
37.2006830403267088
 21
-25.7083576698680254
 31
0.0
  0
ARC
  5
A2
100
AcDbEntity
  8
0
 62
256
370
-1
 48
1.0
  6
ByLayer
100
AcDbCircle
 10
42.782721757806712
 20
20.85337633555298
 30
0.0
 40
1.7000000000000843
100
AcDbArc
 50
215.7000000000005002
 51
35.7000000000005215
  0
ARC
  5
A3
100
AcDbEntity
  8
0
 62
256
370
-1
 48
1.0
  6
ByLayer
100
AcDbCircle
 10
42.782721757806712
 20
-20.8533763355529658
 30
0.0
 40
1.7000000000000843
100
AcDbArc
 50
324.2999999999994429
 51
144.2999999999994998
  0
ARC
  5
A4
100
AcDbEntity
  8
0
 62
256
370
-1
 48
1.0
  6
ByLayer
100
AcDbCircle
 10
85.5370871962966248
 20
26.7003777291735105
 30
0.0
 40
1.699999999999992
100
AcDbArc
 50
324.2999999999968281
 51
144.2999999999968566
  0
ARC
  5
A5
100
AcDbEntity
  8
0
 62
256
370
-1
 48
1.0
  6
ByLayer
100
AcDbCircle
 10
85.5370871962966248
 20
-26.7003777291735425
 30
0.0
 40
1.699999999999992
100
AcDbArc
 50
215.7000000000031434
 51
35.7000000000031861
  0
LINE
  5
A6
100
AcDbEntity
  8
0
 62
256
370
-1
 48
1.0
  6
ByLayer
100
AcDbLine
 10
79.9550484788163942
 20
21.8453963948582164
 30
0.0
 11
84.1565452005806094
 21
27.6923977884789778
 31
0.0
  0
LINE
  5
A7
100
AcDbEntity
  8
0
 62
256
370
-1
 48
1.0
  6
ByLayer
100
AcDbLine
 10
79.9550484788163942
 20
-21.8453963948581418
 30
0.0
 11
84.1565452005806094
 21
-27.6923977884789636
 31
0.0
  0
LINE
  5
A8
100
AcDbEntity
  8
0
 62
256
370
-1
 48
1.0
  6
ByLayer
100
AcDbLine
 10
86.9176291920126403
 20
25.7083576698680432
 30
0.0
 11
82.7161324702485388
 21
19.8613562762475127
 31
0.0
  0
LINE
  5
A9
100
AcDbEntity
  8
0
 62
256
370
-1
 48
1.0
  6
ByLayer
100
AcDbLine
 10
86.9176291920126403
 20
-25.7083576698680361
 30
0.0
 11
82.7161324702485388
 21
-19.8613562762475553
 31
0.0
  0
ARC
  5
AA
100
AcDbEntity
  8
0
 62
256
370
-1
 48
1.0
  6
ByLayer
100
AcDbCircle
 10
81.3355904745324665
 20
20.8533763355528663
 30
0.0
 40
1.6999999999999706
100
AcDbArc
 50
144.300000000001944
 51
324.3000000000018304
  0
ARC
  5
AB
100
AcDbEntity
  8
0
 62
256
370
-1
 48
1.0
  6
ByLayer
100
AcDbCircle
 10
81.3355904745324665
 20
-20.8533763355528592
 30
0.0
 40
1.6999999999999706
100
AcDbArc
 50
35.6999999999981981
 51
215.699999999998056
  0
ENDSEC
  0
SECTION
  2
OBJECTS
  0
DICTIONARY
  5
C
100
AcDbDictionary
280
0
281
1
  3
ACAD_GROUP
350
D
  3
ACAD_LAYOUT
350
1A
  3
ACAD_MLINESTYLE
350
17
  3
ACAD_PLOTSETTINGS
350
19
  3
ACAD_PLOTSTYLENAME
350
E
  3
AcDbVariableDictionary
350
AC
  3
QCAD_OBJECTS
350
AD
  0
DICTIONARY
  5
D
100
AcDbDictionary
280
0
281
1
  0
ACDBDICTIONARYWDFLT
  5
E
100
AcDbDictionary
281
1
  3
Normal
350
F
100
AcDbDictionaryWithDefault
340
F
  0
ACDBPLACEHOLDER
  5
F
  0
DICTIONARY
  5
17
100
AcDbDictionary
280
0
281
1
  3
Standard
350
18
  0
MLINESTYLE
  5
18
100
AcDbMlineStyle
  2
STANDARD
 70
0
  3

 62
256
 51
90.0
 52
90.0
 71
2
 49
0.5
 62
256
  6
BYLAYER
 49
-0.5
 62
256
  6
BYLAYER
  0
DICTIONARY
  5
19
100
AcDbDictionary
280
0
281
1
  0
DICTIONARY
  5
1A
100
AcDbDictionary
281
1
  3
Layout1
350
1E
  3
Layout2
350
26
  3
Model
350
22
  0
LAYOUT
  5
1E
100
AcDbPlotSettings
  1

  2
none_device
  4

  6

 40
0.0
 41
0.0
 42
0.0
 43
0.0
 44
0.0
 45
0.0
 46
0.0
 47
0.0
 48
0.0
 49
0.0
140
0.0
141
0.0
142
1.0
143
1.0
 70
688
 72
0
 73
0
 74
5
  7

 75
16
147
1.0
148
0.0
149
0.0
100
AcDbLayout
  1
Layout1
 70
1
 71
1
 10
0.0
 20
0.0
 11
420.0
 21
297.0
 12
0.0
 22
0.0
 32
0.0
 14
100000000000000000000.0
 24
100000000000000000000.0
 34
100000000000000000000.0
 15
-100000000000000000000.0
 25
-100000000000000000000.0
 35
-100000000000000000000.0
146
0.0
 13
0.0
 23
0.0
 33
0.0
 16
1.0
 26
0.0
 36
0.0
 17
0.0
 27
1.0
 37
0.0
 76
0
330
1B
  0
LAYOUT
  5
22
100
AcDbPlotSettings
  1

  2
none_device
  4

  6

 40
0.0
 41
0.0
 42
0.0
 43
0.0
 44
0.0
 45
0.0
 46
0.0
 47
0.0
 48
0.0
 49
0.0
140
0.0
141
0.0
142
1.0
143
1.0
 70
1712
 72
0
 73
0
 74
0
  7

 75
0
147
1.0
148
0.0
149
0.0
100
AcDbLayout
  1
Model
 70
1
 71
0
 10
0.0
 20
0.0
 11
12.0
 21
9.0
 12
0.0
 22
0.0
 32
0.0
 14
0.0
 24
0.0
 34
0.0
 15
0.0
 25
0.0
 35
0.0
146
0.0
 13
0.0
 23
0.0
 33
0.0
 16
1.0
 26
0.0
 36
0.0
 17
0.0
 27
1.0
 37
0.0
 76
0
330
1F
  0
LAYOUT
  5
26
100
AcDbPlotSettings
  1

  2
none_device
  4

  6

 40
0.0
 41
0.0
 42
0.0
 43
0.0
 44
0.0
 45
0.0
 46
0.0
 47
0.0
 48
0.0
 49
0.0
140
0.0
141
0.0
142
1.0
143
1.0
 70
688
 72
0
 73
0
 74
5
  7

 75
16
147
1.0
148
0.0
149
0.0
100
AcDbLayout
  1
Layout2
 70
1
 71
2
 10
0.0
 20
0.0
 11
12.0
 21
9.0
 12
0.0
 22
0.0
 32
0.0
 14
0.0
 24
0.0
 34
0.0
 15
0.0
 25
0.0
 35
0.0
146
0.0
 13
0.0
 23
0.0
 33
0.0
 16
1.0
 26
0.0
 36
0.0
 17
0.0
 27
1.0
 37
0.0
 76
0
330
23
  0
DICTIONARY
  5
AC
100
AcDbDictionary
281
1
  3
DIMASSOC
350
AF
  3
HIDETEXT
350
AE
  0
DICTIONARYVAR
  5
AE
100
DictionaryVariables
280
0
  1
2
  0
DICTIONARYVAR
  5
AF
100
DictionaryVariables
280
0
  1
1
  0
DICTIONARY
  5
AD
100
AcDbDictionary
281
1
  3
ColorSettings/BackgroundColor
350
B0
  3
ColorSettings/ColorMode
350
B1
  3
Grid/DisplayGrid00
350
B2
  3
Grid/DisplayGrid01
350
B3
  3
Grid/DisplayGrid02
350
B4
  3
Grid/DisplayGrid03
350
B5
  3
Grid/GridSpacingX00
350
B6
  3
Grid/GridSpacingX01
350
B7
  3
Grid/GridSpacingX02
350
B8
  3
Grid/GridSpacingX03
350
B9
  3
Grid/GridSpacingY00
350
BA
  3
Grid/GridSpacingY01
350
BB
  3
Grid/GridSpacingY02
350
BC
  3
Grid/GridSpacingY03
350
BD
  3
Grid/IsometricGrid00
350
BE
  3
Grid/IsometricGrid01
350
BF
  3
Grid/IsometricGrid02
350
C0
  3
Grid/IsometricGrid03
350
C1
  3
Grid/IsometricProjection00
350
C2
  3
Grid/IsometricProjection01
350
C3
  3
Grid/IsometricProjection02
350
C4
  3
Grid/IsometricProjection03
350
C5
  3
Grid/MetaGridSpacingX00
350
C6
  3
Grid/MetaGridSpacingX01
350
C7
  3
Grid/MetaGridSpacingX02
350
C8
  3
Grid/MetaGridSpacingX03
350
C9
  3
Grid/MetaGridSpacingY00
350
CA
  3
Grid/MetaGridSpacingY01
350
CB
  3
Grid/MetaGridSpacingY02
350
CC
  3
Grid/MetaGridSpacingY03
350
CD
  3
MultiPageSettings/Columns
350
CE
  3
MultiPageSettings/GlueMarginsBottom
350
CF
  3
MultiPageSettings/GlueMarginsLeft
350
D0
  3
MultiPageSettings/GlueMarginsRight
350
D1
  3
MultiPageSettings/GlueMarginsTop
350
D2
  3
MultiPageSettings/PrintCropMarks
350
D3
  3
MultiPageSettings/Rows
350
D4
  3
PageSettings/OffsetX
350
D5
  3
PageSettings/OffsetY
350
D6
  3
PageSettings/PageOrientation
350
D7
  3
PageSettings/PaperHeight
350
D8
  3
PageSettings/PaperWidth
350
D9
  3
PageSettings/Scale
350
DA
  3
PageSettings/ShowPaperBorders
350
DB
  3
QCADVersion
350
DC
  3
UnitSettings/PaperUnit
350
DD
  3
ViewportCenter
350
DE
  3
ViewportHeight
350
DF
  3
ViewportWidth
350
E0
  0
XRECORD
  5
B0
330
AD
100
AcDbXrecord
280
1
1000
#ffffff
  0
XRECORD
  5
B1
330
AD
100
AcDbXrecord
280
1
1000
FullColor
  0
XRECORD
  5
B2
330
AD
100
AcDbXrecord
280
1
290
1
  0
XRECORD
  5
B3
330
AD
100
AcDbXrecord
280
1
290
1
  0
XRECORD
  5
B4
330
AD
100
AcDbXrecord
280
1
290
1
  0
XRECORD
  5
B5
330
AD
100
AcDbXrecord
280
1
290
1
  0
XRECORD
  5
B6
330
AD
100
AcDbXrecord
280
1
1000
auto
  0
XRECORD
  5
B7
330
AD
100
AcDbXrecord
280
1
1000
auto
  0
XRECORD
  5
B8
330
AD
100
AcDbXrecord
280
1
1000
auto
  0
XRECORD
  5
B9
330
AD
100
AcDbXrecord
280
1
1000
auto
  0
XRECORD
  5
BA
330
AD
100
AcDbXrecord
280
1
1000
auto
  0
XRECORD
  5
BB
330
AD
100
AcDbXrecord
280
1
1000
auto
  0
XRECORD
  5
BC
330
AD
100
AcDbXrecord
280
1
1000
auto
  0
XRECORD
  5
BD
330
AD
100
AcDbXrecord
280
1
1000
auto
  0
XRECORD
  5
BE
330
AD
100
AcDbXrecord
280
1
290
0
  0
XRECORD
  5
BF
330
AD
100
AcDbXrecord
280
1
290
0
  0
XRECORD
  5
C0
330
AD
100
AcDbXrecord
280
1
290
0
  0
XRECORD
  5
C1
330
AD
100
AcDbXrecord
280
1
290
0
  0
XRECORD
  5
C2
330
AD
100
AcDbXrecord
280
1
 90
65537
  0
XRECORD
  5
C3
330
AD
100
AcDbXrecord
280
1
 90
65537
  0
XRECORD
  5
C4
330
AD
100
AcDbXrecord
280
1
 90
65537
  0
XRECORD
  5
C5
330
AD
100
AcDbXrecord
280
1
 90
65537
  0
XRECORD
  5
C6
330
AD
100
AcDbXrecord
280
1
1000
auto
  0
XRECORD
  5
C7
330
AD
100
AcDbXrecord
280
1
1000
auto
  0
XRECORD
  5
C8
330
AD
100
AcDbXrecord
280
1
1000
auto
  0
XRECORD
  5
C9
330
AD
100
AcDbXrecord
280
1
1000
auto
  0
XRECORD
  5
CA
330
AD
100
AcDbXrecord
280
1
1000
auto
  0
XRECORD
  5
CB
330
AD
100
AcDbXrecord
280
1
1000
auto
  0
XRECORD
  5
CC
330
AD
100
AcDbXrecord
280
1
1000
auto
  0
XRECORD
  5
CD
330
AD
100
AcDbXrecord
280
1
1000
auto
  0
XRECORD
  5
CE
330
AD
100
AcDbXrecord
280
1
 90
1
  0
XRECORD
  5
CF
330
AD
100
AcDbXrecord
280
1
 40
10.0
  0
XRECORD
  5
D0
330
AD
100
AcDbXrecord
280
1
 40
10.0
  0
XRECORD
  5
D1
330
AD
100
AcDbXrecord
280
1
 40
10.0
  0
XRECORD
  5
D2
330
AD
100
AcDbXrecord
280
1
 40
10.0
  0
XRECORD
  5
D3
330
AD
100
AcDbXrecord
280
1
290
0
  0
XRECORD
  5
D4
330
AD
100
AcDbXrecord
280
1
 90
1
  0
XRECORD
  5
D5
330
AD
100
AcDbXrecord
280
1
 40
0.0
  0
XRECORD
  5
D6
330
AD
100
AcDbXrecord
280
1
 40
0.0
  0
XRECORD
  5
D7
330
AD
100
AcDbXrecord
280
1
1000
Portrait
  0
XRECORD
  5
D8
330
AD
100
AcDbXrecord
280
1
 40
297.0
  0
XRECORD
  5
D9
330
AD
100
AcDbXrecord
280
1
 40
210.0
  0
XRECORD
  5
DA
330
AD
100
AcDbXrecord
280
1
1000
1:1
  0
XRECORD
  5
DB
330
AD
100
AcDbXrecord
280
1
290
1
  0
XRECORD
  5
DC
330
AD
100
AcDbXrecord
280
1
1000
3.21.3.11
  0
XRECORD
  5
DD
330
AD
100
AcDbXrecord
280
1
 90
4
  0
XRECORD
  5
DF
330
AD
100
AcDbXrecord
280
1
 40
122.4013978654273274
  0
XRECORD
  5
E0
330
AD
100
AcDbXrecord
280
1
 40
245.1134591772135991
  0
ENDSEC
  0
EOF
